<mxfile host="ac.draw.io" modified="2021-02-24T03:29:25.229Z" agent="5.0 (Macintosh; Intel Mac OS X 10_15_3) AppleWebKit/537.36 (KHTML, like Gecko) Chrome/77.0.3865.90 Safari/537.36" etag="ZwAnnBVyQVZhdxyW-3zm" version="14.4.2" type="embed"><diagram id="nTrbMlxC8jCw4Tek-pKE" name="Page-1"><mxGraphModel dx="1906" dy="1071" grid="0" gridSize="10" guides="1" tooltips="1" connect="1" arrows="1" fold="1" page="1" pageScale="1" pageWidth="1200" pageHeight="1920" math="0" shadow="0"><root><mxCell id="0"/><mxCell id="1" parent="0"/><mxCell id="yfdQ7StdcLDw8oNEx_Lg-12" value="" style="rounded=1;whiteSpace=wrap;html=1;" vertex="1" parent="1"><mxGeometry x="1113" y="224" width="124" height="286" as="geometry"/></mxCell><mxCell id="AHmyfvcvNI7FUngIQWTA-147" style="edgeStyle=orthogonalEdgeStyle;rounded=0;orthogonalLoop=1;jettySize=auto;html=1;exitX=0.5;exitY=1;exitDx=0;exitDy=0;" parent="1" source="5e1EL2xwupu4-Lr9WEpU-7" target="wjCRLZ0c9aTvCrKljIkT-20" edge="1"><mxGeometry relative="1" as="geometry"/></mxCell><mxCell id="5e1EL2xwupu4-Lr9WEpU-7" value="" style="rounded=0;whiteSpace=wrap;html=1;fillColor=#f5f5f5;strokeColor=#666666;fontColor=#333333;" parent="1" vertex="1"><mxGeometry x="1293" y="290" width="479" height="362" as="geometry"/></mxCell><mxCell id="5e1EL2xwupu4-Lr9WEpU-63" value="" style="rounded=1;whiteSpace=wrap;html=1;strokeColor=#d6b656;fillColor=#fff2cc;fontSize=8;" parent="1" vertex="1"><mxGeometry x="1331" y="312" width="381" height="112" as="geometry"/></mxCell><mxCell id="AHmyfvcvNI7FUngIQWTA-141" style="edgeStyle=orthogonalEdgeStyle;rounded=0;orthogonalLoop=1;jettySize=auto;html=1;entryX=0.328;entryY=0.919;entryDx=0;entryDy=0;entryPerimeter=0;dashed=1;" parent="1" source="AHmyfvcvNI7FUngIQWTA-139" edge="1"><mxGeometry relative="1" as="geometry"><mxPoint x="1396.8000000000002" y="400.8800000000001" as="targetPoint"/></mxGeometry></mxCell><mxCell id="wjCRLZ0c9aTvCrKljIkT-20" value="" style="rounded=0;whiteSpace=wrap;html=1;fillColor=#f5f5f5;strokeColor=#666666;fontColor=#333333;" parent="1" vertex="1"><mxGeometry x="1066" y="768" width="498" height="221" as="geometry"/></mxCell><mxCell id="wjCRLZ0c9aTvCrKljIkT-17" value="" style="rounded=1;whiteSpace=wrap;html=1;fillColor=#e1d5e7;strokeColor=#9673a6;" parent="1" vertex="1"><mxGeometry x="1105" y="800" width="416" height="101" as="geometry"/></mxCell><mxCell id="5e1EL2xwupu4-Lr9WEpU-15" value="" style="rounded=1;whiteSpace=wrap;html=1;fillColor=#d5e8d4;strokeColor=#82b366;" parent="1" vertex="1"><mxGeometry x="193" y="122" width="190" height="90" as="geometry"/></mxCell><mxCell id="AHmyfvcvNI7FUngIQWTA-146" style="edgeStyle=orthogonalEdgeStyle;rounded=0;orthogonalLoop=1;jettySize=auto;html=1;entryX=0;entryY=0.5;entryDx=0;entryDy=0;" parent="1" source="eHKS3EOxerdEjLhXiZhe-1" target="wjCRLZ0c9aTvCrKljIkT-20" edge="1"><mxGeometry relative="1" as="geometry"/></mxCell><mxCell id="eHKS3EOxerdEjLhXiZhe-1" value="" style="rounded=0;whiteSpace=wrap;html=1;fillColor=#f5f5f5;strokeColor=#666666;fontColor=#333333;" parent="1" vertex="1"><mxGeometry x="400" y="290" width="676" height="363" as="geometry"/></mxCell><mxCell id="5e1EL2xwupu4-Lr9WEpU-1" value="" style="rounded=1;whiteSpace=wrap;html=1;fillColor=#fff2cc;strokeColor=#d6b656;" parent="1" vertex="1"><mxGeometry x="417" y="310" width="642" height="115" as="geometry"/></mxCell><mxCell id="eHKS3EOxerdEjLhXiZhe-19" value="Integrity Check&amp;nbsp;" style="rounded=1;whiteSpace=wrap;html=1;" parent="1" vertex="1"><mxGeometry x="687" y="380" width="110" height="30" as="geometry"/></mxCell><mxCell id="eHKS3EOxerdEjLhXiZhe-3" value="SFTP Pull Pattern" style="rounded=1;whiteSpace=wrap;html=1;" parent="1" vertex="1"><mxGeometry x="437" y="380" width="110" height="30" as="geometry"/></mxCell><mxCell id="eHKS3EOxerdEjLhXiZhe-5" value="PEGA SFTP Server" style="shape=cylinder3;whiteSpace=wrap;html=1;boundedLbl=1;backgroundOutline=1;size=15;" parent="1" vertex="1"><mxGeometry x="118" y="360" width="60" height="80" as="geometry"/></mxCell><mxCell id="eHKS3EOxerdEjLhXiZhe-6" value="Copy Activity&amp;nbsp;" style="rounded=1;whiteSpace=wrap;html=1;" parent="1" vertex="1"><mxGeometry x="831" y="380" width="86" height="30" as="geometry"/></mxCell><mxCell id="eHKS3EOxerdEjLhXiZhe-8" value="" style="shape=image;verticalLabelPosition=bottom;labelBackgroundColor=#ffffff;verticalAlign=top;aspect=fixed;imageAspect=0;image=data:image/svg+xml,PHN2ZyB4bWxucz0iaHR0cDovL3d3dy53My5vcmcvMjAwMC9zdmciIHhtbG5zOnhsaW5rPSJodHRwOi8vd3d3LnczLm9yZy8xOTk5L3hsaW5rIiB2ZXJzaW9uPSIxLjEiIGlkPSJMYXllcl8xIiB4PSIwcHgiIHk9IjBweCIgd2lkdGg9IjUwcHgiIGhlaWdodD0iNTBweCIgdmlld0JveD0iMCAwIDUwIDUwIiBlbmFibGUtYmFja2dyb3VuZD0ibmV3IDAgMCA1MCA1MCIgeG1sOnNwYWNlPSJwcmVzZXJ2ZSI+JiN4YTs8Zz4mI3hhOwk8cGF0aCBmaWxsPSIjM0UzRTNFIiBkPSJNNi4xLDYuOHYzNi4zYzAsMy44LDguNCw2LjgsMTguOSw2LjhWNi44SDYuMXoiLz4mI3hhOwk8cGF0aCBmaWxsPSIjQTBBMUEyIiBkPSJNMjQuNyw1MEgyNWMxMC40LDAsMTguOS0zLjEsMTguOS02LjhWNi44SDI0LjdWNTB6Ii8+JiN4YTsJPHBhdGggZmlsbD0iI0ZGRkZGRiIgZD0iTTQzLjksNi44YzAsMy44LTguNCw2LjgtMTguOSw2LjhTNi4xLDEwLjYsNi4xLDYuOEM2LjEsMy4xLDE0LjYsMCwyNSwwUzQzLjksMy4xLDQzLjksNi44Ii8+JiN4YTsJPHBhdGggZmlsbD0iIzdGQkEwMCIgZD0iTTQwLDYuNGMwLDIuNS02LjcsNC41LTE1LDQuNXMtMTUtMi0xNS00LjVjMC0yLjUsNi43LTQuNSwxNS00LjVTNDAsMy45LDQwLDYuNCIvPiYjeGE7CTxwYXRoIGZpbGw9IiNCOEQ0MzIiIGQ9Ik0zNi45LDkuMmMyLTAuOCwzLjEtMS43LDMuMS0yLjhjMC0yLjUtNi43LTQuNS0xNS00LjVjLTguMywwLTE1LDItMTUsNC41YzAsMSwxLjIsMiwzLjEsMi44ICAgYzIuNy0xLjEsNy0xLjgsMTEuOS0xLjhDMjkuOCw3LjQsMzQuMSw4LjEsMzYuOSw5LjIiLz4mI3hhOzwvZz4mI3hhOzxnPiYjeGE7CTxwYXRoIGZpbGw9IiMzOTk5QzYiIGQ9Ik0yNC43LDUwVjMyYy0yLjgsMC01LjItMS41LTYuNi0zLjdjLTEuNCwyLjItMy43LDMuNy02LjUsMy43Yy0yLjIsMC00LjEtMC45LTUuNS0yLjR2MTMuNiAgIEM2LjEsNDYuOSwxNC40LDQ5LjksMjQuNyw1MHoiLz4mI3hhOwk8cGF0aCBmaWxsPSIjMzk5OUM2IiBkPSJNMjUsNTBMMjUsNTBMMjUsNTBDMjUsNTAsMjUsNTAsMjUsNTB6Ii8+JiN4YTsJPHBhdGggZmlsbD0iIzU5QjREOSIgZD0iTTI0LjcsNTBIMjVDMjQuOSw1MCwyNC44LDUwLDI0LjcsNTBMMjQuNyw1MHoiLz4mI3hhOwk8cGF0aCBmaWxsPSIjNTlCNEQ5IiBkPSJNMzguMSwzMmMtMi44LDAtNS4zLTEuNS02LjctMy43Yy0xLjMsMi4yLTMuNywzLjYtNi41LDMuN3YxOGgwYzEwLjQsMCwxOC45LTMuMSwxOC45LTYuOFYyOS41ICAgQzQyLjQsMzEsNDAuNCwzMiwzOC4xLDMyeiIvPiYjeGE7CTxwYXRoIGZpbGw9IiM1OUI0RDkiIGQ9Ik0yNC44LDMyQzI0LjgsMzIsMjQuOCwzMiwyNC44LDMybC0wLjEsMThjMC4xLDAsMC4xLDAsMC4yLDBoMFYzMkMyNC45LDMyLDI0LjksMzIsMjQuOCwzMnoiLz4mI3hhOzwvZz4mI3hhOzwvc3ZnPg==;" parent="1" vertex="1"><mxGeometry x="467" y="460" width="50" height="50" as="geometry"/></mxCell><mxCell id="eHKS3EOxerdEjLhXiZhe-9" value="" style="shape=image;verticalLabelPosition=bottom;labelBackgroundColor=#ffffff;verticalAlign=top;aspect=fixed;imageAspect=0;image=data:image/svg+xml,PHN2ZyB4bWxucz0iaHR0cDovL3d3dy53My5vcmcvMjAwMC9zdmciIHhtbG5zOnhsaW5rPSJodHRwOi8vd3d3LnczLm9yZy8xOTk5L3hsaW5rIiB2ZXJzaW9uPSIxLjEiIGlkPSJMYXllcl8xIiB4PSIwcHgiIHk9IjBweCIgd2lkdGg9IjUwcHgiIGhlaWdodD0iNTBweCIgdmlld0JveD0iMCAwIDUwIDUwIiBlbmFibGUtYmFja2dyb3VuZD0ibmV3IDAgMCA1MCA1MCIgeG1sOnNwYWNlPSJwcmVzZXJ2ZSI+JiN4YTs8Zz4mI3hhOwk8cGF0aCBmaWxsPSIjM0UzRTNFIiBkPSJNNi4xLDYuOHYzNi4zYzAsMy44LDguNCw2LjgsMTguOSw2LjhWNi44SDYuMXoiLz4mI3hhOwk8cGF0aCBmaWxsPSIjQTBBMUEyIiBkPSJNMjQuNyw1MEgyNWMxMC40LDAsMTguOS0zLjEsMTguOS02LjhWNi44SDI0LjdWNTB6Ii8+JiN4YTsJPHBhdGggZmlsbD0iI0ZGRkZGRiIgZD0iTTQzLjksNi44YzAsMy44LTguNCw2LjgtMTguOSw2LjhTNi4xLDEwLjYsNi4xLDYuOEM2LjEsMy4xLDE0LjYsMCwyNSwwUzQzLjksMy4xLDQzLjksNi44Ii8+JiN4YTsJPHBhdGggZmlsbD0iIzdGQkEwMCIgZD0iTTQwLDYuNGMwLDIuNS02LjcsNC41LTE1LDQuNXMtMTUtMi0xNS00LjVjMC0yLjUsNi43LTQuNSwxNS00LjVTNDAsMy45LDQwLDYuNCIvPiYjeGE7CTxwYXRoIGZpbGw9IiNCOEQ0MzIiIGQ9Ik0zNi45LDkuMmMyLTAuOCwzLjEtMS43LDMuMS0yLjhjMC0yLjUtNi43LTQuNS0xNS00LjVjLTguMywwLTE1LDItMTUsNC41YzAsMSwxLjIsMiwzLjEsMi44ICAgYzIuNy0xLjEsNy0xLjgsMTEuOS0xLjhDMjkuOCw3LjQsMzQuMSw4LjEsMzYuOSw5LjIiLz4mI3hhOzwvZz4mI3hhOzxnPiYjeGE7CTxwYXRoIGZpbGw9IiMzOTk5QzYiIGQ9Ik0yNC43LDUwVjMyYy0yLjgsMC01LjItMS41LTYuNi0zLjdjLTEuNCwyLjItMy43LDMuNy02LjUsMy43Yy0yLjIsMC00LjEtMC45LTUuNS0yLjR2MTMuNiAgIEM2LjEsNDYuOSwxNC40LDQ5LjksMjQuNyw1MHoiLz4mI3hhOwk8cGF0aCBmaWxsPSIjMzk5OUM2IiBkPSJNMjUsNTBMMjUsNTBMMjUsNTBDMjUsNTAsMjUsNTAsMjUsNTB6Ii8+JiN4YTsJPHBhdGggZmlsbD0iIzU5QjREOSIgZD0iTTI0LjcsNTBIMjVDMjQuOSw1MCwyNC44LDUwLDI0LjcsNTBMMjQuNyw1MHoiLz4mI3hhOwk8cGF0aCBmaWxsPSIjNTlCNEQ5IiBkPSJNMzguMSwzMmMtMi44LDAtNS4zLTEuNS02LjctMy43Yy0xLjMsMi4yLTMuNywzLjYtNi41LDMuN3YxOGgwYzEwLjQsMCwxOC45LTMuMSwxOC45LTYuOFYyOS41ICAgQzQyLjQsMzEsNDAuNCwzMiwzOC4xLDMyeiIvPiYjeGE7CTxwYXRoIGZpbGw9IiM1OUI0RDkiIGQ9Ik0yNC44LDMyQzI0LjgsMzIsMjQuOCwzMiwyNC44LDMybC0wLjEsMThjMC4xLDAsMC4xLDAsMC4yLDBoMFYzMkMyNC45LDMyLDI0LjksMzIsMjQuOCwzMnoiLz4mI3hhOzwvZz4mI3hhOzwvc3ZnPg==;" parent="1" vertex="1"><mxGeometry x="592" y="460" width="50" height="50" as="geometry"/></mxCell><mxCell id="eHKS3EOxerdEjLhXiZhe-10" value="" style="shape=image;verticalLabelPosition=bottom;labelBackgroundColor=#ffffff;verticalAlign=top;aspect=fixed;imageAspect=0;image=data:image/svg+xml,PHN2ZyB4bWxucz0iaHR0cDovL3d3dy53My5vcmcvMjAwMC9zdmciIHhtbG5zOnhsaW5rPSJodHRwOi8vd3d3LnczLm9yZy8xOTk5L3hsaW5rIiB2ZXJzaW9uPSIxLjEiIGlkPSJMYXllcl8xIiB4PSIwcHgiIHk9IjBweCIgd2lkdGg9IjUwcHgiIGhlaWdodD0iNTBweCIgdmlld0JveD0iMCAwIDUwIDUwIiBlbmFibGUtYmFja2dyb3VuZD0ibmV3IDAgMCA1MCA1MCIgeG1sOnNwYWNlPSJwcmVzZXJ2ZSI+JiN4YTs8Zz4mI3hhOwk8cGF0aCBmaWxsPSIjM0UzRTNFIiBkPSJNNi4xLDYuOHYzNi4zYzAsMy44LDguNCw2LjgsMTguOSw2LjhWNi44SDYuMXoiLz4mI3hhOwk8cGF0aCBmaWxsPSIjQTBBMUEyIiBkPSJNMjQuNyw1MEgyNWMxMC40LDAsMTguOS0zLjEsMTguOS02LjhWNi44SDI0LjdWNTB6Ii8+JiN4YTsJPHBhdGggZmlsbD0iI0ZGRkZGRiIgZD0iTTQzLjksNi44YzAsMy44LTguNCw2LjgtMTguOSw2LjhTNi4xLDEwLjYsNi4xLDYuOEM2LjEsMy4xLDE0LjYsMCwyNSwwUzQzLjksMy4xLDQzLjksNi44Ii8+JiN4YTsJPHBhdGggZmlsbD0iIzdGQkEwMCIgZD0iTTQwLDYuNGMwLDIuNS02LjcsNC41LTE1LDQuNXMtMTUtMi0xNS00LjVjMC0yLjUsNi43LTQuNSwxNS00LjVTNDAsMy45LDQwLDYuNCIvPiYjeGE7CTxwYXRoIGZpbGw9IiNCOEQ0MzIiIGQ9Ik0zNi45LDkuMmMyLTAuOCwzLjEtMS43LDMuMS0yLjhjMC0yLjUtNi43LTQuNS0xNS00LjVjLTguMywwLTE1LDItMTUsNC41YzAsMSwxLjIsMiwzLjEsMi44ICAgYzIuNy0xLjEsNy0xLjgsMTEuOS0xLjhDMjkuOCw3LjQsMzQuMSw4LjEsMzYuOSw5LjIiLz4mI3hhOzwvZz4mI3hhOzxnPiYjeGE7CTxwYXRoIGZpbGw9IiMzOTk5QzYiIGQ9Ik0yNC43LDUwVjMyYy0yLjgsMC01LjItMS41LTYuNi0zLjdjLTEuNCwyLjItMy43LDMuNy02LjUsMy43Yy0yLjIsMC00LjEtMC45LTUuNS0yLjR2MTMuNiAgIEM2LjEsNDYuOSwxNC40LDQ5LjksMjQuNyw1MHoiLz4mI3hhOwk8cGF0aCBmaWxsPSIjMzk5OUM2IiBkPSJNMjUsNTBMMjUsNTBMMjUsNTBDMjUsNTAsMjUsNTAsMjUsNTB6Ii8+JiN4YTsJPHBhdGggZmlsbD0iIzU5QjREOSIgZD0iTTI0LjcsNTBIMjVDMjQuOSw1MCwyNC44LDUwLDI0LjcsNTBMMjQuNyw1MHoiLz4mI3hhOwk8cGF0aCBmaWxsPSIjNTlCNEQ5IiBkPSJNMzguMSwzMmMtMi44LDAtNS4zLTEuNS02LjctMy43Yy0xLjMsMi4yLTMuNywzLjYtNi41LDMuN3YxOGgwYzEwLjQsMCwxOC45LTMuMSwxOC45LTYuOFYyOS41ICAgQzQyLjQsMzEsNDAuNCwzMiwzOC4xLDMyeiIvPiYjeGE7CTxwYXRoIGZpbGw9IiM1OUI0RDkiIGQ9Ik0yNC44LDMyQzI0LjgsMzIsMjQuOCwzMiwyNC44LDMybC0wLjEsMThjMC4xLDAsMC4xLDAsMC4yLDBoMFYzMkMyNC45LDMyLDI0LjksMzIsMjQuOCwzMnoiLz4mI3hhOzwvZz4mI3hhOzwvc3ZnPg==;" parent="1" vertex="1"><mxGeometry x="842.5" y="460" width="50" height="50" as="geometry"/></mxCell><mxCell id="eHKS3EOxerdEjLhXiZhe-11" value="Unzip PEGA objects&amp;nbsp;" style="rounded=1;whiteSpace=wrap;html=1;" parent="1" vertex="1"><mxGeometry x="562" y="380" width="110" height="30" as="geometry"/></mxCell><mxCell id="eHKS3EOxerdEjLhXiZhe-13" value="" style="endArrow=classic;html=1;exitX=0.5;exitY=1;exitDx=0;exitDy=0;entryX=0.5;entryY=0;entryDx=0;entryDy=0;" parent="1" source="eHKS3EOxerdEjLhXiZhe-3" target="eHKS3EOxerdEjLhXiZhe-8" edge="1"><mxGeometry width="50" height="50" relative="1" as="geometry"><mxPoint x="617" y="440" as="sourcePoint"/><mxPoint x="667" y="390" as="targetPoint"/></mxGeometry></mxCell><mxCell id="eHKS3EOxerdEjLhXiZhe-14" value="" style="endArrow=classic;html=1;entryX=0.327;entryY=1.1;entryDx=0;entryDy=0;entryPerimeter=0;" parent="1" source="eHKS3EOxerdEjLhXiZhe-8" target="eHKS3EOxerdEjLhXiZhe-11" edge="1"><mxGeometry width="50" height="50" relative="1" as="geometry"><mxPoint x="527" y="500" as="sourcePoint"/><mxPoint x="577" y="450" as="targetPoint"/></mxGeometry></mxCell><mxCell id="eHKS3EOxerdEjLhXiZhe-15" value="" style="endArrow=classic;html=1;exitX=0.5;exitY=1;exitDx=0;exitDy=0;entryX=0.5;entryY=0;entryDx=0;entryDy=0;" parent="1" edge="1"><mxGeometry width="50" height="50" relative="1" as="geometry"><mxPoint x="616.5" y="410" as="sourcePoint"/><mxPoint x="616.5" y="460" as="targetPoint"/></mxGeometry></mxCell><mxCell id="eHKS3EOxerdEjLhXiZhe-16" value="" style="endArrow=classic;html=1;" parent="1" edge="1"><mxGeometry width="50" height="50" relative="1" as="geometry"><mxPoint x="637" y="465.0140605831839" as="sourcePoint"/><mxPoint x="737" y="410" as="targetPoint"/></mxGeometry></mxCell><mxCell id="eHKS3EOxerdEjLhXiZhe-17" value="" style="endArrow=classic;html=1;entryX=0.5;entryY=0;entryDx=0;entryDy=0;" parent="1" target="eHKS3EOxerdEjLhXiZhe-10" edge="1"><mxGeometry width="50" height="50" relative="1" as="geometry"><mxPoint x="868" y="410" as="sourcePoint"/><mxPoint x="872.5" y="460" as="targetPoint"/></mxGeometry></mxCell><mxCell id="eHKS3EOxerdEjLhXiZhe-18" value="" style="shape=image;verticalLabelPosition=bottom;labelBackgroundColor=#ffffff;verticalAlign=top;aspect=fixed;imageAspect=0;image=data:image/svg+xml,PHN2ZyB4bWxucz0iaHR0cDovL3d3dy53My5vcmcvMjAwMC9zdmciIHhtbG5zOnhsaW5rPSJodHRwOi8vd3d3LnczLm9yZy8xOTk5L3hsaW5rIiB2ZXJzaW9uPSIxLjEiIGlkPSJMYXllcl8xIiB4PSIwcHgiIHk9IjBweCIgdmlld0JveD0iMCAwIDY0IDY0IiBlbmFibGUtYmFja2dyb3VuZD0ibmV3IDAgMCA2NCA2NCIgeG1sOnNwYWNlPSJwcmVzZXJ2ZSI+JiN4YTs8Zz4mI3hhOwk8cGF0aCBmaWxsPSIjMzk5OUM2IiBkPSJNNjMuNiwzMi40YzAuNi0wLjYsMC41LTEuNywwLTIuM0w2MC41LDI3TDQ2LjcsMTMuNmMtMC42LTAuNi0xLjUtMC42LTIuMiwwbDAsMGMtMC42LDAuNi0wLjgsMS43LDAsMi4zICAgTDU5LDMwLjFjMC42LDAuNiwwLjYsMS43LDAsMi4zTDQ0LjIsNDcuMWMtMC42LDAuNi0wLjYsMS43LDAsMi4zbDAsMGMwLjYsMC42LDEuNywwLjUsMi4yLDBsMTMuNy0xMy42YzAsMCwwLDAsMC4xLTAuMUw2My42LDMyLjR6ICAgIi8+JiN4YTsJPHBhdGggZmlsbD0iIzM5OTlDNiIgZD0iTTAuNCwzMi40Yy0wLjYtMC42LTAuNS0xLjcsMC0yLjNMMy41LDI3bDEzLjgtMTMuNGMwLjYtMC42LDEuNS0wLjYsMi4yLDBsMCwwYzAuNiwwLjYsMC44LDEuNywwLDIuMyAgIEw1LjMsMzAuMWMtMC42LDAuNi0wLjYsMS43LDAsMi4zbDE0LjUsMTQuN2MwLjYsMC42LDAuNiwxLjcsMCwyLjNsMCwwYy0wLjYsMC42LTEuNywwLjUtMi4yLDBMMy42LDM2YzAsMCwwLDAtMC4xLTAuMUwwLjQsMzIuNHoiLz4mI3hhOwk8cG9seWdvbiBmaWxsPSIjRkNEMTE2IiBwb2ludHM9IjQ3LjYsMi41IDI4LjEsMi41IDE3LjYsMzIuMSAzMC40LDMyLjIgMjAuNCw2MS41IDQ4LDIyLjQgMzQuNiwyMi40ICAiLz4mI3hhOwk8cG9seWdvbiBvcGFjaXR5PSIwLjMiIGZpbGw9IiNGRjhDMDAiIGVuYWJsZS1iYWNrZ3JvdW5kPSJuZXcgICAgIiBwb2ludHM9IjM0LjYsMjIuNCA0Ny42LDIuNSAzNy40LDIuNSAyNi42LDI3LjEgMzkuNCwyNy4yICAgIDIwLjQsNjEuNSA0OCwyMi40ICAiLz4mI3hhOzwvZz4mI3hhOzwvc3ZnPg==;" parent="1" vertex="1"><mxGeometry x="707" y="360" width="30" height="30" as="geometry"/></mxCell><mxCell id="eHKS3EOxerdEjLhXiZhe-20" value="Data Lake Raw&amp;nbsp;" style="text;html=1;strokeColor=none;fillColor=none;align=center;verticalAlign=middle;whiteSpace=wrap;rounded=0;" parent="1" vertex="1"><mxGeometry x="840" y="520" width="65" height="20" as="geometry"/></mxCell><mxCell id="eHKS3EOxerdEjLhXiZhe-21" value="Data Lake Landing&amp;nbsp;" style="text;html=1;strokeColor=none;fillColor=none;align=center;verticalAlign=middle;whiteSpace=wrap;rounded=0;" parent="1" vertex="1"><mxGeometry x="459.5" y="520" width="65" height="20" as="geometry"/></mxCell><mxCell id="eHKS3EOxerdEjLhXiZhe-22" value="Data Lake Landing Unzipped&amp;nbsp;" style="text;html=1;strokeColor=none;fillColor=none;align=center;verticalAlign=middle;whiteSpace=wrap;rounded=0;" parent="1" vertex="1"><mxGeometry x="587" y="520" width="65" height="20" as="geometry"/></mxCell><mxCell id="eHKS3EOxerdEjLhXiZhe-23" value="" style="endArrow=classic;html=1;entryX=0;entryY=0.5;entryDx=0;entryDy=0;exitX=1;exitY=0.5;exitDx=0;exitDy=0;" parent="1" source="eHKS3EOxerdEjLhXiZhe-19" target="eHKS3EOxerdEjLhXiZhe-6" edge="1"><mxGeometry width="50" height="50" relative="1" as="geometry"><mxPoint x="807" y="395" as="sourcePoint"/><mxPoint x="667" y="370" as="targetPoint"/></mxGeometry></mxCell><mxCell id="eHKS3EOxerdEjLhXiZhe-24" value="POST" style="text;html=1;strokeColor=none;fillColor=none;align=center;verticalAlign=middle;whiteSpace=wrap;rounded=0;" parent="1" vertex="1"><mxGeometry x="794" y="372" width="40" height="20" as="geometry"/></mxCell><mxCell id="5e1EL2xwupu4-Lr9WEpU-2" value="" style="shape=image;verticalLabelPosition=bottom;labelBackgroundColor=#ffffff;verticalAlign=top;aspect=fixed;imageAspect=0;image=data:image/svg+xml,PHN2ZyB4bWxucz0iaHR0cDovL3d3dy53My5vcmcvMjAwMC9zdmciIHhtbG5zOnhsaW5rPSJodHRwOi8vd3d3LnczLm9yZy8xOTk5L3hsaW5rIiB2ZXJzaW9uPSIxLjEiIGlkPSJMYXllcl8xIiB4PSIwcHgiIHk9IjBweCIgd2lkdGg9IjUwcHgiIGhlaWdodD0iNTBweCIgdmlld0JveD0iMCAwIDUwIDUwIiBlbmFibGUtYmFja2dyb3VuZD0ibmV3IDAgMCA1MCA1MCIgeG1sOnNwYWNlPSJwcmVzZXJ2ZSI+JiN4YTs8cGF0aCBmaWxsPSIjNTlCNEQ5IiBkPSJNNDkuOSwyOS41TDQ5LjksMjkuNVYxNy40TDM2LjIsMjkuM2gtMC4zVjE3LjRMMjIuMiwyOS4zbDAsMFY0LjRjMC0yLjEtNC43LTQuMi0xMC45LTQuMiAgQzUuMSwwLjIsMCwyLjIsMCw0LjRWNTBoNTBMNDkuOSwyOS41eiBNMTEuMyw2LjRjLTQuNSwwLTguMS0xLjEtOC4xLTIuM3MzLjYtMi4zLDguMS0yLjNzOC4xLDEsOC4xLDIuM0MxOS4zLDUuMywxNS43LDYuNCwxMS4zLDYuNCAgeiBNMzQuOSw0MS45aC01LjV2LTUuNWg1LjVWNDEuOXogTTI1LjIsNDEuOWgtNS41di01LjVoNS41VjQxLjl6IE0zOS4yLDQxLjl2LTUuNWg1LjV2NS41SDM5LjJ6Ii8+JiN4YTs8cmVjdCB4PSIwIiB5PSI0LjEiIGZpbGw9IiMzOTk5QzYiIHdpZHRoPSIxMS4xIiBoZWlnaHQ9IjQ1LjkiLz4mI3hhOzxwYXRoIGZpbGw9IiNGRkZGRkYiIGQ9Ik0yMi4xLDQuMWMwLDIuMi01LDQtMTEuMSw0UzAsNi4zLDAsNC4xYzAtMi4yLDUtNCwxMS4xLTRTMjIuMSwxLjgsMjIuMSw0LjEiLz4mI3hhOzxwYXRoIGZpbGw9IiM3RkJBMDAiIGQ9Ik0xOS45LDMuOGMwLDEuNS0zLjksMi42LTguOCwyLjZTMi4zLDUuMywyLjMsMy44YzAtMS41LDMuOS0yLjYsOC44LTIuNlMxOS45LDIuNCwxOS45LDMuOCIvPiYjeGE7PHBhdGggZmlsbD0iI0I4RDQzMiIgZD0iTTE4LDUuNGMxLjItMC40LDEuOC0xLDEuOC0xLjZjMC0xLjUtMy45LTIuNi04LjgtMi42Yy00LjksMC04LjgsMS4yLTguOCwyLjZDMi4zLDQuNCwzLDUsNC4xLDUuNCAgYzEuNi0wLjYsNC4xLTEsNy0xQzEzLjksNC40LDE2LjQsNC44LDE4LDUuNCIvPiYjeGE7PC9zdmc+;" parent="1" vertex="1"><mxGeometry x="447" y="322" width="40" height="40" as="geometry"/></mxCell><mxCell id="5e1EL2xwupu4-Lr9WEpU-3" value="Pre-build Hyper pipeline with placeholder for accepting runtime config&amp;nbsp;&amp;nbsp;" style="text;html=1;strokeColor=none;fillColor=none;align=left;verticalAlign=middle;whiteSpace=wrap;rounded=0;" parent="1" vertex="1"><mxGeometry x="497" y="332" width="230" height="20" as="geometry"/></mxCell><mxCell id="5e1EL2xwupu4-Lr9WEpU-8" value="" style="shape=image;verticalLabelPosition=bottom;labelBackgroundColor=#ffffff;verticalAlign=top;aspect=fixed;imageAspect=0;image=data:image/svg+xml,PHN2ZyB4bWxucz0iaHR0cDovL3d3dy53My5vcmcvMjAwMC9zdmciIHhtbG5zOnhsaW5rPSJodHRwOi8vd3d3LnczLm9yZy8xOTk5L3hsaW5rIiB4bWxuczpzdmc9Imh0dHA6Ly93d3cudzMub3JnLzIwMDAvc3ZnIiBjbGFzcz0iZnhzLXBvcnRhbC1zdmciIGlkPSJGeFN5bWJvbDAtMGZiIiByb2xlPSJwcmVzZW50YXRpb24iIHZpZXdCb3g9IjAgMCAyMy45ODEgMjIiIGZvY3VzYWJsZT0iZmFsc2UiPiYjeGE7PGc+JiN4YTs8dGl0bGUvPiYjeGE7PHRpdGxlPkNvc21vc19EQl8yPC90aXRsZT4mI3hhOzxwYXRoIGNsYXNzPSJtc3BvcnRhbGZ4LXN2Zy1jMTUiIGZpbGw9IiM1OWI0ZDkiIGQ9Ik0gMTkuOCA5LjggQSA3Ljk4IDcuOTggMCAxIDEgMTAuMyA0IGEgNy45NSA3Ljk1IDAgMCAxIDkuNSA1LjggWiIvPiYjeGE7PHBhdGggY2xhc3M9Im1zcG9ydGFsZngtc3ZnLWMwMSIgb3BhY2l0eT0iMC41IiBmaWxsPSIjZmZmZmZmIiBkPSJNIDExIDE0LjkgYSAyLjExMiAyLjExMiAwIDAgMCAtMi4xIC0yLjEgaCAtMC40IEEgMi4wMTUgMi4wMTUgMCAwIDAgNyAxMC4zIEggNC40IGEgNy44IDcuOCAwIDAgMCAxLjkgNi44IGggMi42IGEgMi4yIDIuMiAwIDAgMCAyLjEgLTIuMiBaIG0gMi42IC04LjcgdiAwLjQgaCAtMC45IGEgMi4yIDIuMiAwIDAgMCAwIDQuNCBIIDIwIGEgNy42MjQgNy42MjQgMCAwIDAgLTQuMSAtNi4yIEggMTUgYSAxLjM2NyAxLjM2NyAwIDAgMCAtMS40IDEuNCBaIG0gNi40IDYuMyBoIC00LjMgYSAxLjc5MyAxLjc5MyAwIDAgMCAtMS44IDEuOCBhIDIuOTIgMi45MiAwIDAgMCAwLjIgMC45IGEgMS44MTIgMS44MTIgMCAwIDAgLTEuMiAyLjIgYSAxLjYzMSAxLjYzMSAwIDAgMCAxLjcgMS4yIGggMS4yIGEgNy45NDcgNy45NDcgMCAwIDAgNC4yIC02LjEgWiIvPiYjeGE7PHBhdGggY2xhc3M9Im1zcG9ydGFsZngtc3ZnLWMxMyIgZmlsbD0iI2I4ZDQzMiIgZD0iTSAzLjIgNi40IGEgMC4yMTUgMC4yMTUgMCAwIDEgLTAuMiAtMC4yIEEgMi44IDIuOCAwIDAgMCAwLjIgMy40IGMgLTAuMSAwLjEgLTAuMiAtMC4xIC0wLjIgLTAuMiBBIDAuMjE1IDAuMjE1IDAgMCAxIDAuMiAzIEEgMi44IDIuOCAwIDAgMCAzIDAuMiBjIDAgLTAuMiAwLjEgLTAuMiAwLjIgLTAuMiBzIDAuMyAwIDAuMyAwLjIgQSAyLjggMi44IDAgMCAwIDYuMyAzIGEgMC4yIDAuMiAwIDAgMSAwIDAuNCBhIDIuOCAyLjggMCAwIDAgLTIuOCAyLjggYyAwIDAuMSAtMC4xIDAuMiAtMC4zIDAuMiBaIi8+JiN4YTs8cGF0aCBjbGFzcz0ibXNwb3J0YWxmeC1zdmctYzE1IiBmaWxsPSIjNTliNGQ5IiBkPSJNIDIwLjMgMjIgYyAtMC4xIDAgLTAuMSAwIC0wLjEgLTAuMSBhIDEuNjY2IDEuNjY2IDAgMCAwIC0xLjcgLTEuNiBjIC0wLjEgMCAtMC4xIDAgLTAuMSAtMC4xIHMgMCAtMC4xIDAuMSAtMC4xIGEgMS43MzUgMS43MzUgMCAwIDAgMS43IC0xLjYgYyAwIC0wLjEgMCAtMC4xIDAuMSAtMC4xIHMgMC4xIDAgMC4xIDAuMSBhIDEuNjY2IDEuNjY2IDAgMCAwIDEuNyAxLjYgYyAwLjEgMCAwLjEgMCAwLjEgMC4xIHMgMCAwLjEgLTAuMSAwLjEgYSAxLjczNSAxLjczNSAwIDAgMCAtMS43IDEuNiBjIDAuMSAwLjEgMCAwLjEgLTAuMSAwLjEgWiIvPiYjeGE7PHBhdGggZD0iTSAyMy43IDQuNiBjIC0wLjggLTEuMiAtMi42IC0xLjUgLTUuNSAtMC44IGEgMTkuNzUyIDE5Ljc1MiAwIDAgMCAtMi42IDAuOCBhIDcuODM3IDcuODM3IDAgMCAxIDEuNSAxIGMgMC41IC0wLjEgMSAtMC4zIDEuNCAtMC40IGEgOS4wNzkgOS4wNzkgMCAwIDEgMi4zIC0wLjMgYyAwLjkgMCAxLjQgMC4yIDEuNiAwLjUgYyAwLjMgMC41IDAgMS43IC0xLjYgMy42IGEgOS40MjggOS40MjggMCAwIDEgLTEgMSBhIDM0LjA3OCAzNC4wNzggMCAwIDEgLTYgNC42IEEgMjcuOSAyNy45IDAgMCAxIDcgMTcuNyBjIC0yLjkgMC45IC00LjkgMC45IC01LjMgMC4yIHMgMC40IC0yLjUgMi42IC00LjYgYSAxMS4wMTkgMTEuMDE5IDAgMCAxIC0wLjIgLTEuOCBDIDAuNyAxNC42IC0wLjQgMTcuMyAwLjQgMTguNyBhIDMuNTEgMy41MSAwIDAgMCAzIDEuMiBhIDE1LjA0NyAxNS4wNDcgMCAwIDAgNS4xIC0xLjEgYSAzMy42MjUgMzMuNjI1IDAgMCAwIDYgLTMgYSA0MS44NjkgNDEuODY5IDAgMCAwIDUuNCAtNCBhIDE3LjA0NCAxNy4wNDQgMCAwIDAgMS45IC0xLjkgYyAyIC0yLjMgMi42IC00LjEgMS45IC01LjMgWiIvPiYjeGE7PC9nPiYjeGE7PC9zdmc+;" parent="1" vertex="1"><mxGeometry x="68.44999999999999" y="122" width="54.55" height="50" as="geometry"/></mxCell><mxCell id="5e1EL2xwupu4-Lr9WEpU-9" value="Azure Cosmos DB&amp;nbsp;" style="text;html=1;strokeColor=none;fillColor=none;align=center;verticalAlign=middle;whiteSpace=wrap;rounded=0;" parent="1" vertex="1"><mxGeometry x="63" y="182" width="80" height="20" as="geometry"/></mxCell><mxCell id="5e1EL2xwupu4-Lr9WEpU-11" value="" style="shape=image;verticalLabelPosition=bottom;labelBackgroundColor=#ffffff;verticalAlign=top;aspect=fixed;imageAspect=0;image=data:image/svg+xml,PHN2ZyB4bWxucz0iaHR0cDovL3d3dy53My5vcmcvMjAwMC9zdmciIHhtbG5zOnhsaW5rPSJodHRwOi8vd3d3LnczLm9yZy8xOTk5L3hsaW5rIiB2ZXJzaW9uPSIxLjEiIGlkPSJMYXllcl8xIiB4PSIwcHgiIHk9IjBweCIgdmlld0JveD0iMCAwIDE2IDE2IiBzdHlsZT0iZW5hYmxlLWJhY2tncm91bmQ6bmV3IDAgMCAxNiAxNjsiIHhtbDpzcGFjZT0icHJlc2VydmUiPiYjeGE7PHN0eWxlIHR5cGU9InRleHQvY3NzIj4mI3hhOwkuc3Qwe2ZpbGw6IzAwNzhENzt9JiN4YTsJLnN0MXtmaWxsOiNGRkZGRkY7fSYjeGE7PC9zdHlsZT4mI3hhOzxnPiYjeGE7CTxwYXRoIGNsYXNzPSJzdDAiIGQ9Ik0zLjgsMi4zQzMuNiwyLjEsMy40LDEuOSwzLjIsMS43Yy0wLjUtMC4zLTEtMC41LTEtMC41TDEuNSwxQzEuNCwxLjIsMS4zLDEuMywxLjMsMS42YzAsMC45LDAuMywxLjEsMC4zLDEuMSAgIEg0QzMuOSwyLjYsMy45LDIuNSwzLjgsMi4zeiIvPiYjeGE7CTxwYXRoIGNsYXNzPSJzdDAiIGQ9Ik00LjIsMTQuN2MwLjItMC4yLDAuMy0wLjUsMC4zLTAuOXYtMC41SDVoNy4zYzAtMC4yLDAtMC40LDAtMC41YzAtMi42LDIuMy02LjQsMi4zLTkuNGMwLTIuNC0yLjMtMi43LTIuMy0yLjcgICBINC4xSDIuM2MwLDAsMS44LDAuNCwyLjIsMmMwLjEsMC4yLDAuMSwwLjQsMC4xLDAuN2MwLDMtMi4zLDYuOC0yLjMsOS40YzAsMC4zLDAsMC43LDAuMSwxYzAuMSwwLjMsMC4yLDAuNSwwLjQsMC43ICAgYzAuMSwwLjEsMC4yLDAuMiwwLjQsMC4zQzMuMywxNC45LDMuNCwxNSwzLjYsMTVDMy44LDE1LDQsMTQuOSw0LjIsMTQuN3oiLz4mI3hhOwk8cGF0aCBjbGFzcz0ic3QwIiBkPSJNMy43LDE1LjUiLz4mI3hhOwk8cGF0aCBjbGFzcz0ic3QwIiBkPSJNNSwxMy45YzAsMC41LTAuMiwxLTAuNCwxLjJjLTAuMywwLjMtMC45LDAuNC0wLjksMC40bDkuOCwwaDAuM2MwLDAsMCwwLDAsMGMwLjMsMCwwLjYtMC4yLDAuOC0wLjUgICBjMC4yLTAuMywwLjMtMC43LDAuMy0xLjJoLTIuNUw1LDEzLjlMNSwxMy45eiIvPiYjeGE7PC9nPiYjeGE7PHBhdGggY2xhc3M9InN0MSIgZD0iTTExLjEsNC40TDguOCw2LjVoMmwtMy45LDMuNmwxLjYtM0g2LjdsMi0zaDIuNFY0LjR6Ii8+JiN4YTs8L3N2Zz4=;" parent="1" vertex="1"><mxGeometry x="310.5" y="132" width="40" height="40" as="geometry"/></mxCell><mxCell id="5e1EL2xwupu4-Lr9WEpU-12" value="" style="endArrow=classic;html=1;entryX=0;entryY=0.5;entryDx=0;entryDy=0;" parent="1" target="5e1EL2xwupu4-Lr9WEpU-15" edge="1"><mxGeometry width="50" height="50" relative="1" as="geometry"><mxPoint x="133" y="167" as="sourcePoint"/><mxPoint x="193" y="52" as="targetPoint"/></mxGeometry></mxCell><mxCell id="5e1EL2xwupu4-Lr9WEpU-13" value="ADF Customized Trigger&amp;nbsp;" style="text;html=1;strokeColor=none;fillColor=none;align=center;verticalAlign=middle;whiteSpace=wrap;rounded=0;" parent="1" vertex="1"><mxGeometry x="283" y="182" width="95" height="20" as="geometry"/></mxCell><mxCell id="5e1EL2xwupu4-Lr9WEpU-14" value="" style="verticalLabelPosition=bottom;html=1;verticalAlign=top;align=center;strokeColor=none;shape=mxgraph.azure.code_file;pointerEvents=1;fillColor=#666666;" parent="1" vertex="1"><mxGeometry x="223" y="137" width="30" height="30" as="geometry"/></mxCell><mxCell id="5e1EL2xwupu4-Lr9WEpU-17" value="" style="shape=image;html=1;verticalAlign=top;verticalLabelPosition=bottom;labelBackgroundColor=#ffffff;imageAspect=0;aspect=fixed;image=https://cdn4.iconfinder.com/data/icons/ionicons/512/icon-ios7-plus-empty-128.png;fillColor=#FFFFFF;fontSize=8;" parent="1" vertex="1"><mxGeometry x="273" y="139" width="28" height="28" as="geometry"/></mxCell><mxCell id="5e1EL2xwupu4-Lr9WEpU-18" value="&lt;font style=&quot;font-size: 12px&quot;&gt;run time parameters&amp;nbsp;&lt;/font&gt;" style="text;html=1;strokeColor=none;fillColor=none;align=left;verticalAlign=middle;whiteSpace=wrap;rounded=0;fontSize=8;" parent="1" vertex="1"><mxGeometry x="210.5" y="182" width="100" height="20" as="geometry"/></mxCell><mxCell id="5e1EL2xwupu4-Lr9WEpU-21" value="" style="shape=flexArrow;endArrow=classic;html=1;fontSize=8;fillColor=#dae8fc;strokeColor=#6c8ebf;" parent="1" edge="1"><mxGeometry width="50" height="50" relative="1" as="geometry"><mxPoint x="286" y="202" as="sourcePoint"/><mxPoint x="285" y="237" as="targetPoint"/></mxGeometry></mxCell><mxCell id="5e1EL2xwupu4-Lr9WEpU-25" value="&lt;font size=&quot;1&quot;&gt;&lt;b style=&quot;font-size: 12px&quot;&gt;1&lt;/b&gt;&lt;/font&gt;" style="ellipse;whiteSpace=wrap;html=1;aspect=fixed;fillColor=#d5e8d4;fontSize=8;strokeColor=#82b366;" parent="1" vertex="1"><mxGeometry x="153" y="137" width="20" height="20" as="geometry"/></mxCell><mxCell id="5e1EL2xwupu4-Lr9WEpU-44" value="&lt;font size=&quot;1&quot; color=&quot;#ff8000&quot;&gt;&lt;b style=&quot;font-size: 12px&quot;&gt;2a&lt;/b&gt;&lt;/font&gt;" style="ellipse;whiteSpace=wrap;html=1;aspect=fixed;fillColor=#ffe6cc;fontSize=8;strokeColor=#d79b00;" parent="1" vertex="1"><mxGeometry x="402" y="370" width="20" height="20" as="geometry"/></mxCell><mxCell id="5e1EL2xwupu4-Lr9WEpU-47" value="&lt;font color=&quot;#ff8000&quot;&gt;&lt;span style=&quot;font-size: 12px&quot;&gt;&lt;b&gt;3&lt;/b&gt;&lt;/span&gt;&lt;/font&gt;" style="ellipse;whiteSpace=wrap;html=1;aspect=fixed;fillColor=#ffe6cc;fontSize=8;strokeColor=#d79b00;" parent="1" vertex="1"><mxGeometry x="587" y="425" width="20" height="20" as="geometry"/></mxCell><mxCell id="5e1EL2xwupu4-Lr9WEpU-48" value="&lt;font color=&quot;#ff8000&quot;&gt;&lt;span style=&quot;font-size: 12px&quot;&gt;&lt;b&gt;4&lt;/b&gt;&lt;/span&gt;&lt;/font&gt;" style="ellipse;whiteSpace=wrap;html=1;aspect=fixed;fillColor=#ffe6cc;fontSize=8;strokeColor=#d79b00;" parent="1" vertex="1"><mxGeometry x="807" y="353.25" width="20" height="20" as="geometry"/></mxCell><mxCell id="5e1EL2xwupu4-Lr9WEpU-57" value="&lt;font color=&quot;#ff8000&quot;&gt;&lt;span style=&quot;font-size: 12px&quot;&gt;&lt;b&gt;5&lt;/b&gt;&lt;/span&gt;&lt;/font&gt;" style="ellipse;whiteSpace=wrap;html=1;aspect=fixed;fillColor=#ffe6cc;fontSize=8;strokeColor=#d79b00;" parent="1" vertex="1"><mxGeometry x="907" y="495" width="20" height="20" as="geometry"/></mxCell><mxCell id="AHmyfvcvNI7FUngIQWTA-94" style="edgeStyle=orthogonalEdgeStyle;rounded=0;orthogonalLoop=1;jettySize=auto;html=1;" parent="1" source="5e1EL2xwupu4-Lr9WEpU-70" target="5e1EL2xwupu4-Lr9WEpU-80" edge="1"><mxGeometry relative="1" as="geometry"/></mxCell><mxCell id="AHmyfvcvNI7FUngIQWTA-96" style="edgeStyle=orthogonalEdgeStyle;rounded=0;orthogonalLoop=1;jettySize=auto;html=1;dashed=1;" parent="1" source="5e1EL2xwupu4-Lr9WEpU-70" target="AHmyfvcvNI7FUngIQWTA-90" edge="1"><mxGeometry relative="1" as="geometry"/></mxCell><mxCell id="5e1EL2xwupu4-Lr9WEpU-70" value="Dynamic SQL" style="shape=image;html=1;verticalAlign=top;verticalLabelPosition=bottom;labelBackgroundColor=none;imageAspect=0;aspect=fixed;image=https://cdn1.iconfinder.com/data/icons/hawcons/32/700048-icon-89-document-file-sql-128.png;labelPosition=center;align=center;" parent="1" vertex="1"><mxGeometry x="1576.25" y="446.5" width="50" height="50" as="geometry"/></mxCell><mxCell id="5e1EL2xwupu4-Lr9WEpU-80" value="Snowflake&#10; (Structured Layer)" style="shape=image;verticalLabelPosition=bottom;labelBackgroundColor=none;verticalAlign=top;aspect=fixed;imageAspect=0;image=https://globalcorporateventuring.com/content/uploads/2018/08/Snowflake_Computing_blue_icon.png;labelPosition=center;align=center;" parent="1" vertex="1"><mxGeometry x="1696.25" y="451.86" width="39" height="39.27" as="geometry"/></mxCell><mxCell id="5e1EL2xwupu4-Lr9WEpU-85" value="&lt;font style=&quot;font-size: 15px&quot; color=&quot;#ffb570&quot;&gt;&lt;b&gt;Logging and Monitoring&lt;/b&gt;&lt;/font&gt;" style="text;html=1;strokeColor=none;fillColor=none;align=center;verticalAlign=middle;whiteSpace=wrap;rounded=0;fontSize=8;" parent="1" vertex="1"><mxGeometry x="1079" y="772" width="175" height="20" as="geometry"/></mxCell><mxCell id="5e1EL2xwupu4-Lr9WEpU-88" value="&lt;span style=&quot;font-size: 15px&quot;&gt;&lt;b&gt;&lt;font color=&quot;#ffb570&quot;&gt;Ingestion Pipeline&amp;nbsp;&lt;/font&gt;&lt;/b&gt;&lt;/span&gt;" style="text;html=1;strokeColor=none;fillColor=none;align=center;verticalAlign=middle;whiteSpace=wrap;rounded=0;fontSize=8;" parent="1" vertex="1"><mxGeometry x="1462.5" y="292" width="140" height="20" as="geometry"/></mxCell><mxCell id="5e1EL2xwupu4-Lr9WEpU-92" value="&lt;font style=&quot;font-size: 12px&quot;&gt;ADF Pre-build&amp;nbsp;&lt;/font&gt;" style="rounded=1;whiteSpace=wrap;html=1;strokeColor=#d6b656;fillColor=#fff2cc;fontSize=8;" parent="1" vertex="1"><mxGeometry x="2405" y="238.5" width="120" height="60" as="geometry"/></mxCell><mxCell id="5e1EL2xwupu4-Lr9WEpU-93" value="&lt;font style=&quot;font-size: 12px&quot;&gt;ADF Run-time&amp;nbsp;&lt;/font&gt;" style="rounded=1;whiteSpace=wrap;html=1;strokeColor=#82b366;fillColor=#d5e8d4;fontSize=8;" parent="1" vertex="1"><mxGeometry x="2405" y="310.5" width="120" height="60" as="geometry"/></mxCell><mxCell id="9MO3_OXOUGIxZCUw2X8g-2" style="edgeStyle=orthogonalEdgeStyle;rounded=0;orthogonalLoop=1;jettySize=auto;html=1;exitX=0.5;exitY=1;exitDx=0;exitDy=0;entryX=0;entryY=0.5;entryDx=0;entryDy=0;dashed=1;" parent="1" source="wjCRLZ0c9aTvCrKljIkT-4" target="9MO3_OXOUGIxZCUw2X8g-1" edge="1"><mxGeometry relative="1" as="geometry"/></mxCell><mxCell id="wjCRLZ0c9aTvCrKljIkT-4" value="Success Logging" style="shape=image;verticalLabelPosition=bottom;labelBackgroundColor=none;verticalAlign=top;aspect=fixed;imageAspect=0;image=data:image/svg+xml,PHN2ZyB4bWxucz0iaHR0cDovL3d3dy53My5vcmcvMjAwMC9zdmciIHhtbG5zOnhsaW5rPSJodHRwOi8vd3d3LnczLm9yZy8xOTk5L3hsaW5rIiB2ZXJzaW9uPSIxLjEiIGlkPSJMYXllcl8xIiB4PSIwcHgiIHk9IjBweCIgdmlld0JveD0iMCAwIDY0IDY0IiBlbmFibGUtYmFja2dyb3VuZD0ibmV3IDAgMCA2NCA2NCIgeG1sOnNwYWNlPSJwcmVzZXJ2ZSI+JiN4YTs8Zz4mI3hhOwk8cGF0aCBmaWxsPSIjMzk5OUM2IiBkPSJNNjMuNiwzMi40YzAuNi0wLjYsMC41LTEuNywwLTIuM0w2MC41LDI3TDQ2LjcsMTMuNmMtMC42LTAuNi0xLjUtMC42LTIuMiwwbDAsMGMtMC42LDAuNi0wLjgsMS43LDAsMi4zICAgTDU5LDMwLjFjMC42LDAuNiwwLjYsMS43LDAsMi4zTDQ0LjIsNDcuMWMtMC42LDAuNi0wLjYsMS43LDAsMi4zbDAsMGMwLjYsMC42LDEuNywwLjUsMi4yLDBsMTMuNy0xMy42YzAsMCwwLDAsMC4xLTAuMUw2My42LDMyLjR6ICAgIi8+JiN4YTsJPHBhdGggZmlsbD0iIzM5OTlDNiIgZD0iTTAuNCwzMi40Yy0wLjYtMC42LTAuNS0xLjcsMC0yLjNMMy41LDI3bDEzLjgtMTMuNGMwLjYtMC42LDEuNS0wLjYsMi4yLDBsMCwwYzAuNiwwLjYsMC44LDEuNywwLDIuMyAgIEw1LjMsMzAuMWMtMC42LDAuNi0wLjYsMS43LDAsMi4zbDE0LjUsMTQuN2MwLjYsMC42LDAuNiwxLjcsMCwyLjNsMCwwYy0wLjYsMC42LTEuNywwLjUtMi4yLDBMMy42LDM2YzAsMCwwLDAtMC4xLTAuMUwwLjQsMzIuNHoiLz4mI3hhOwk8cG9seWdvbiBmaWxsPSIjRkNEMTE2IiBwb2ludHM9IjQ3LjYsMi41IDI4LjEsMi41IDE3LjYsMzIuMSAzMC40LDMyLjIgMjAuNCw2MS41IDQ4LDIyLjQgMzQuNiwyMi40ICAiLz4mI3hhOwk8cG9seWdvbiBvcGFjaXR5PSIwLjMiIGZpbGw9IiNGRjhDMDAiIGVuYWJsZS1iYWNrZ3JvdW5kPSJuZXcgICAgIiBwb2ludHM9IjM0LjYsMjIuNCA0Ny42LDIuNSAzNy40LDIuNSAyNi42LDI3LjEgMzkuNCwyNy4yICAgIDIwLjQsNjEuNSA0OCwyMi40ICAiLz4mI3hhOzwvZz4mI3hhOzwvc3ZnPg==;" parent="1" vertex="1"><mxGeometry x="1284.75" y="824" width="42.5" height="42.5" as="geometry"/></mxCell><mxCell id="9MO3_OXOUGIxZCUw2X8g-3" style="edgeStyle=orthogonalEdgeStyle;rounded=0;orthogonalLoop=1;jettySize=auto;html=1;exitX=0.5;exitY=1;exitDx=0;exitDy=0;entryX=1;entryY=0.5;entryDx=0;entryDy=0;dashed=1;" parent="1" source="wjCRLZ0c9aTvCrKljIkT-11" target="9MO3_OXOUGIxZCUw2X8g-1" edge="1"><mxGeometry relative="1" as="geometry"/></mxCell><mxCell id="wjCRLZ0c9aTvCrKljIkT-11" value="Failure Logging" style="shape=image;verticalLabelPosition=bottom;labelBackgroundColor=none;verticalAlign=top;aspect=fixed;imageAspect=0;image=data:image/svg+xml,PHN2ZyB4bWxucz0iaHR0cDovL3d3dy53My5vcmcvMjAwMC9zdmciIHhtbG5zOnhsaW5rPSJodHRwOi8vd3d3LnczLm9yZy8xOTk5L3hsaW5rIiB2ZXJzaW9uPSIxLjEiIGlkPSJMYXllcl8xIiB4PSIwcHgiIHk9IjBweCIgdmlld0JveD0iMCAwIDY0IDY0IiBlbmFibGUtYmFja2dyb3VuZD0ibmV3IDAgMCA2NCA2NCIgeG1sOnNwYWNlPSJwcmVzZXJ2ZSI+JiN4YTs8Zz4mI3hhOwk8cGF0aCBmaWxsPSIjMzk5OUM2IiBkPSJNNjMuNiwzMi40YzAuNi0wLjYsMC41LTEuNywwLTIuM0w2MC41LDI3TDQ2LjcsMTMuNmMtMC42LTAuNi0xLjUtMC42LTIuMiwwbDAsMGMtMC42LDAuNi0wLjgsMS43LDAsMi4zICAgTDU5LDMwLjFjMC42LDAuNiwwLjYsMS43LDAsMi4zTDQ0LjIsNDcuMWMtMC42LDAuNi0wLjYsMS43LDAsMi4zbDAsMGMwLjYsMC42LDEuNywwLjUsMi4yLDBsMTMuNy0xMy42YzAsMCwwLDAsMC4xLTAuMUw2My42LDMyLjR6ICAgIi8+JiN4YTsJPHBhdGggZmlsbD0iIzM5OTlDNiIgZD0iTTAuNCwzMi40Yy0wLjYtMC42LTAuNS0xLjcsMC0yLjNMMy41LDI3bDEzLjgtMTMuNGMwLjYtMC42LDEuNS0wLjYsMi4yLDBsMCwwYzAuNiwwLjYsMC44LDEuNywwLDIuMyAgIEw1LjMsMzAuMWMtMC42LDAuNi0wLjYsMS43LDAsMi4zbDE0LjUsMTQuN2MwLjYsMC42LDAuNiwxLjcsMCwyLjNsMCwwYy0wLjYsMC42LTEuNywwLjUtMi4yLDBMMy42LDM2YzAsMCwwLDAtMC4xLTAuMUwwLjQsMzIuNHoiLz4mI3hhOwk8cG9seWdvbiBmaWxsPSIjRkNEMTE2IiBwb2ludHM9IjQ3LjYsMi41IDI4LjEsMi41IDE3LjYsMzIuMSAzMC40LDMyLjIgMjAuNCw2MS41IDQ4LDIyLjQgMzQuNiwyMi40ICAiLz4mI3hhOwk8cG9seWdvbiBvcGFjaXR5PSIwLjMiIGZpbGw9IiNGRjhDMDAiIGVuYWJsZS1iYWNrZ3JvdW5kPSJuZXcgICAgIiBwb2ludHM9IjM0LjYsMjIuNCA0Ny42LDIuNSAzNy40LDIuNSAyNi42LDI3LjEgMzkuNCwyNy4yICAgIDIwLjQsNjEuNSA0OCwyMi40ICAiLz4mI3hhOzwvZz4mI3hhOzwvc3ZnPg==;" parent="1" vertex="1"><mxGeometry x="1430.25" y="826" width="42.5" height="42.5" as="geometry"/></mxCell><mxCell id="wjCRLZ0c9aTvCrKljIkT-14" value="" style="shape=image;verticalLabelPosition=bottom;labelBackgroundColor=#ffffff;verticalAlign=top;aspect=fixed;imageAspect=0;image=data:image/svg+xml,PHN2ZyB4bWxucz0iaHR0cDovL3d3dy53My5vcmcvMjAwMC9zdmciIHhtbG5zOnhsaW5rPSJodHRwOi8vd3d3LnczLm9yZy8xOTk5L3hsaW5rIiB2ZXJzaW9uPSIxLjEiIGlkPSJMYXllcl8xIiB4PSIwcHgiIHk9IjBweCIgd2lkdGg9IjUwcHgiIGhlaWdodD0iNTBweCIgdmlld0JveD0iMCAwIDUwIDUwIiBlbmFibGUtYmFja2dyb3VuZD0ibmV3IDAgMCA1MCA1MCIgeG1sOnNwYWNlPSJwcmVzZXJ2ZSI+JiN4YTs8cmVjdCB4PSIxIiB5PSIyNiIgZmlsbC1ydWxlPSJldmVub2RkIiBjbGlwLXJ1bGU9ImV2ZW5vZGQiIGZpbGw9IiNBMEExQTIiIHdpZHRoPSIxMCIgaGVpZ2h0PSIxMCIvPiYjeGE7PHJlY3QgeD0iMSIgeT0iMTMiIGZpbGwtcnVsZT0iZXZlbm9kZCIgY2xpcC1ydWxlPSJldmVub2RkIiBmaWxsPSIjQTBBMUEyIiB3aWR0aD0iMTAiIGhlaWdodD0iMTAiLz4mI3hhOzxyZWN0IHg9IjEiIHk9IjM5IiBmaWxsLXJ1bGU9ImV2ZW5vZGQiIGNsaXAtcnVsZT0iZXZlbm9kZCIgZmlsbD0iI0EwQTFBMiIgd2lkdGg9IjEwIiBoZWlnaHQ9IjEwIi8+JiN4YTs8cmVjdCB4PSIxNCIgeT0iMzkiIGZpbGwtcnVsZT0iZXZlbm9kZCIgY2xpcC1ydWxlPSJldmVub2RkIiBmaWxsPSIjQTBBMUEyIiB3aWR0aD0iMTAiIGhlaWdodD0iMTAiLz4mI3hhOzxyZWN0IHg9IjI3IiB5PSIzOSIgZmlsbC1ydWxlPSJldmVub2RkIiBjbGlwLXJ1bGU9ImV2ZW5vZGQiIGZpbGw9IiNBMEExQTIiIHdpZHRoPSIxMCIgaGVpZ2h0PSIxMCIvPiYjeGE7PGc+JiN4YTsJPGc+JiN4YTsJCTxnPiYjeGE7CQkJPHBhdGggZmlsbC1ydWxlPSJldmVub2RkIiBjbGlwLXJ1bGU9ImV2ZW5vZGQiIGZpbGw9IiMwMDcyQzYiIGQ9Ik0zMS41LDFDMjEuNzA1LDEsMTQsOC43MDUsMTQsMTguNVYzNmMwLDAsMTIuOTk0LDAsMTcuNSwwICAgICBDNDEuMjk1LDM2LDQ5LDI4LjI5NSw0OSwxOC41QzQ5LDguNzA1LDQxLjI5NSwxLDMxLjUsMXoiLz4mI3hhOwkJPC9nPiYjeGE7CTwvZz4mI3hhOzwvZz4mI3hhOzxwYXRoIGZpbGwtcnVsZT0iZXZlbm9kZCIgY2xpcC1ydWxlPSJldmVub2RkIiBmaWxsPSIjRkZGRkZGIiBkPSJNMjEsMTZsMywwdjExaC0zVjE2eiIvPiYjeGE7PHBhdGggZmlsbC1ydWxlPSJldmVub2RkIiBjbGlwLXJ1bGU9ImV2ZW5vZGQiIGZpbGw9IiNGRkZGRkYiIGQ9Ik0yOCwxOWgzdjhoLTNWMTl6Ii8+JiN4YTs8cGF0aCBmaWxsLXJ1bGU9ImV2ZW5vZGQiIGNsaXAtcnVsZT0iZXZlbm9kZCIgZmlsbD0iI0ZGRkZGRiIgZD0iTTM1LDEyaDN2MTVoLTNWMTJ6Ii8+JiN4YTs8L3N2Zz4=;" parent="1" vertex="1"><mxGeometry x="1159" y="824" width="39" height="39" as="geometry"/></mxCell><mxCell id="wjCRLZ0c9aTvCrKljIkT-15" value="Pipeline Logging" style="rounded=1;whiteSpace=wrap;html=1;fillColor=#e1d5e7;strokeColor=#9673a6;" parent="1" vertex="1"><mxGeometry x="2405" y="384.5" width="120" height="60" as="geometry"/></mxCell><mxCell id="wjCRLZ0c9aTvCrKljIkT-18" value="&lt;font style=&quot;font-size: 12px&quot;&gt;Data Factory Logging&lt;/font&gt;" style="text;html=1;strokeColor=none;fillColor=none;align=center;verticalAlign=middle;whiteSpace=wrap;rounded=0;fontSize=8;" parent="1" vertex="1"><mxGeometry x="1126" y="871.5" width="100" height="20" as="geometry"/></mxCell><mxCell id="Az-5ZL2YKviKSRp2sKgw-4" value="&lt;font size=&quot;1&quot;&gt;&lt;b style=&quot;font-size: 12px&quot;&gt;2&lt;/b&gt;&lt;/font&gt;" style="ellipse;whiteSpace=wrap;html=1;aspect=fixed;fillColor=#d5e8d4;fontSize=8;strokeColor=#82b366;" parent="1" vertex="1"><mxGeometry x="320.5" y="222" width="20" height="20" as="geometry"/></mxCell><mxCell id="Az-5ZL2YKviKSRp2sKgw-6" value="&lt;font color=&quot;#ff8000&quot;&gt;&lt;span style=&quot;font-size: 12px&quot;&gt;&lt;b&gt;2b&lt;/b&gt;&lt;/span&gt;&lt;/font&gt;" style="ellipse;whiteSpace=wrap;html=1;aspect=fixed;fillColor=#ffe6cc;fontSize=8;strokeColor=#d79b00;" parent="1" vertex="1"><mxGeometry x="477" y="435" width="20" height="20" as="geometry"/></mxCell><mxCell id="AHmyfvcvNI7FUngIQWTA-1" value="" style="shape=image;verticalLabelPosition=bottom;labelBackgroundColor=#ffffff;verticalAlign=top;aspect=fixed;imageAspect=0;image=data:image/svg+xml,PHN2ZyB4bWxucz0iaHR0cDovL3d3dy53My5vcmcvMjAwMC9zdmciIHhtbG5zOnhsaW5rPSJodHRwOi8vd3d3LnczLm9yZy8xOTk5L3hsaW5rIiB2ZXJzaW9uPSIxLjEiIGlkPSJMYXllcl8xIiB4PSIwcHgiIHk9IjBweCIgdmlld0JveD0iMCAwIDY0IDY0IiBlbmFibGUtYmFja2dyb3VuZD0ibmV3IDAgMCA2NCA2NCIgeG1sOnNwYWNlPSJwcmVzZXJ2ZSI+JiN4YTs8Zz4mI3hhOwk8cGF0aCBmaWxsPSIjMzk5OUM2IiBkPSJNNjMuNiwzMi40YzAuNi0wLjYsMC41LTEuNywwLTIuM0w2MC41LDI3TDQ2LjcsMTMuNmMtMC42LTAuNi0xLjUtMC42LTIuMiwwbDAsMGMtMC42LDAuNi0wLjgsMS43LDAsMi4zICAgTDU5LDMwLjFjMC42LDAuNiwwLjYsMS43LDAsMi4zTDQ0LjIsNDcuMWMtMC42LDAuNi0wLjYsMS43LDAsMi4zbDAsMGMwLjYsMC42LDEuNywwLjUsMi4yLDBsMTMuNy0xMy42YzAsMCwwLDAsMC4xLTAuMUw2My42LDMyLjR6ICAgIi8+JiN4YTsJPHBhdGggZmlsbD0iIzM5OTlDNiIgZD0iTTAuNCwzMi40Yy0wLjYtMC42LTAuNS0xLjcsMC0yLjNMMy41LDI3bDEzLjgtMTMuNGMwLjYtMC42LDEuNS0wLjYsMi4yLDBsMCwwYzAuNiwwLjYsMC44LDEuNywwLDIuMyAgIEw1LjMsMzAuMWMtMC42LDAuNi0wLjYsMS43LDAsMi4zbDE0LjUsMTQuN2MwLjYsMC42LDAuNiwxLjcsMCwyLjNsMCwwYy0wLjYsMC42LTEuNywwLjUtMi4yLDBMMy42LDM2YzAsMCwwLDAtMC4xLTAuMUwwLjQsMzIuNHoiLz4mI3hhOwk8cG9seWdvbiBmaWxsPSIjRkNEMTE2IiBwb2ludHM9IjQ3LjYsMi41IDI4LjEsMi41IDE3LjYsMzIuMSAzMC40LDMyLjIgMjAuNCw2MS41IDQ4LDIyLjQgMzQuNiwyMi40ICAiLz4mI3hhOwk8cG9seWdvbiBvcGFjaXR5PSIwLjMiIGZpbGw9IiNGRjhDMDAiIGVuYWJsZS1iYWNrZ3JvdW5kPSJuZXcgICAgIiBwb2ludHM9IjM0LjYsMjIuNCA0Ny42LDIuNSAzNy40LDIuNSAyNi42LDI3LjEgMzkuNCwyNy4yICAgIDIwLjQsNjEuNSA0OCwyMi40ICAiLz4mI3hhOzwvZz4mI3hhOzwvc3ZnPg==;" parent="1" vertex="1"><mxGeometry x="265.75" y="240" width="42.5" height="42.5" as="geometry"/></mxCell><mxCell id="AHmyfvcvNI7FUngIQWTA-43" style="edgeStyle=orthogonalEdgeStyle;rounded=0;orthogonalLoop=1;jettySize=auto;html=1;exitX=0.5;exitY=1;exitDx=0;exitDy=0;dashed=1;" parent="1" source="AHmyfvcvNI7FUngIQWTA-2" edge="1"><mxGeometry relative="1" as="geometry"><mxPoint x="288" y="352.19994354248047" as="targetPoint"/></mxGeometry></mxCell><mxCell id="AHmyfvcvNI7FUngIQWTA-2" value="&lt;font style=&quot;font-size: 12px&quot;&gt;Parameter Parsing&lt;/font&gt;" style="text;html=1;strokeColor=none;fillColor=none;align=center;verticalAlign=middle;whiteSpace=wrap;rounded=0;fontSize=8;" parent="1" vertex="1"><mxGeometry x="238" y="282" width="100" height="20" as="geometry"/></mxCell><mxCell id="AHmyfvcvNI7FUngIQWTA-7" value="Alerting" style="rounded=1;whiteSpace=wrap;html=1;fillColor=#f8cecc;strokeColor=#b85450;" parent="1" vertex="1"><mxGeometry x="2405" y="457.5" width="120" height="60" as="geometry"/></mxCell><mxCell id="AHmyfvcvNI7FUngIQWTA-8" value="&lt;font size=&quot;1&quot; color=&quot;#ff8000&quot;&gt;&lt;b style=&quot;font-size: 12px&quot;&gt;1a&lt;/b&gt;&lt;/font&gt;" style="ellipse;whiteSpace=wrap;html=1;aspect=fixed;fillColor=#ffe6cc;fontSize=8;strokeColor=#d79b00;" parent="1" vertex="1"><mxGeometry x="245.5" y="350" width="20" height="20" as="geometry"/></mxCell><mxCell id="AHmyfvcvNI7FUngIQWTA-9" value="" style="shape=image;verticalLabelPosition=bottom;labelBackgroundColor=#ffffff;verticalAlign=top;aspect=fixed;imageAspect=0;image=data:image/svg+xml,PHN2ZyB4bWxucz0iaHR0cDovL3d3dy53My5vcmcvMjAwMC9zdmciIHhtbG5zOnhsaW5rPSJodHRwOi8vd3d3LnczLm9yZy8xOTk5L3hsaW5rIiB2ZXJzaW9uPSIxLjEiIGlkPSJMYXllcl8xIiB4PSIwcHgiIHk9IjBweCIgd2lkdGg9IjUwcHgiIGhlaWdodD0iNTBweCIgdmlld0JveD0iMCAwIDUwIDUwIiBlbmFibGUtYmFja2dyb3VuZD0ibmV3IDAgMCA1MCA1MCIgeG1sOnNwYWNlPSJwcmVzZXJ2ZSI+JiN4YTs8Zz4mI3hhOwk8cGF0aCBmaWxsPSIjM0UzRTNFIiBkPSJNNi4xLDYuOHYzNi4zYzAsMy44LDguNCw2LjgsMTguOSw2LjhWNi44SDYuMXoiLz4mI3hhOwk8cGF0aCBmaWxsPSIjQTBBMUEyIiBkPSJNMjQuNyw1MEgyNWMxMC40LDAsMTguOS0zLjEsMTguOS02LjhWNi44SDI0LjdWNTB6Ii8+JiN4YTsJPHBhdGggZmlsbD0iI0ZGRkZGRiIgZD0iTTQzLjksNi44YzAsMy44LTguNCw2LjgtMTguOSw2LjhTNi4xLDEwLjYsNi4xLDYuOEM2LjEsMy4xLDE0LjYsMCwyNSwwUzQzLjksMy4xLDQzLjksNi44Ii8+JiN4YTsJPHBhdGggZmlsbD0iIzdGQkEwMCIgZD0iTTQwLDYuNGMwLDIuNS02LjcsNC41LTE1LDQuNXMtMTUtMi0xNS00LjVjMC0yLjUsNi43LTQuNSwxNS00LjVTNDAsMy45LDQwLDYuNCIvPiYjeGE7CTxwYXRoIGZpbGw9IiNCOEQ0MzIiIGQ9Ik0zNi45LDkuMmMyLTAuOCwzLjEtMS43LDMuMS0yLjhjMC0yLjUtNi43LTQuNS0xNS00LjVjLTguMywwLTE1LDItMTUsNC41YzAsMSwxLjIsMiwzLjEsMi44ICAgYzIuNy0xLjEsNy0xLjgsMTEuOS0xLjhDMjkuOCw3LjQsMzQuMSw4LjEsMzYuOSw5LjIiLz4mI3hhOzwvZz4mI3hhOzxnPiYjeGE7CTxwYXRoIGZpbGw9IiMzOTk5QzYiIGQ9Ik0yNC43LDUwVjMyYy0yLjgsMC01LjItMS41LTYuNi0zLjdjLTEuNCwyLjItMy43LDMuNy02LjUsMy43Yy0yLjIsMC00LjEtMC45LTUuNS0yLjR2MTMuNiAgIEM2LjEsNDYuOSwxNC40LDQ5LjksMjQuNyw1MHoiLz4mI3hhOwk8cGF0aCBmaWxsPSIjMzk5OUM2IiBkPSJNMjUsNTBMMjUsNTBMMjUsNTBDMjUsNTAsMjUsNTAsMjUsNTB6Ii8+JiN4YTsJPHBhdGggZmlsbD0iIzU5QjREOSIgZD0iTTI0LjcsNTBIMjVDMjQuOSw1MCwyNC44LDUwLDI0LjcsNTBMMjQuNyw1MHoiLz4mI3hhOwk8cGF0aCBmaWxsPSIjNTlCNEQ5IiBkPSJNMzguMSwzMmMtMi44LDAtNS4zLTEuNS02LjctMy43Yy0xLjMsMi4yLTMuNywzLjYtNi41LDMuN3YxOGgwYzEwLjQsMCwxOC45LTMuMSwxOC45LTYuOFYyOS41ICAgQzQyLjQsMzEsNDAuNCwzMiwzOC4xLDMyeiIvPiYjeGE7CTxwYXRoIGZpbGw9IiM1OUI0RDkiIGQ9Ik0yNC44LDMyQzI0LjgsMzIsMjQuOCwzMiwyNC44LDMybC0wLjEsMThjMC4xLDAsMC4xLDAsMC4yLDBoMFYzMkMyNC45LDMyLDI0LjksMzIsMjQuOCwzMnoiLz4mI3hhOzwvZz4mI3hhOzwvc3ZnPg==;" parent="1" vertex="1"><mxGeometry x="260.5" y="549.5" width="50" height="50" as="geometry"/></mxCell><mxCell id="AHmyfvcvNI7FUngIQWTA-10" value="Data Lake Landing&amp;nbsp;" style="text;html=1;strokeColor=none;fillColor=none;align=center;verticalAlign=middle;whiteSpace=wrap;rounded=0;" parent="1" vertex="1"><mxGeometry x="253" y="604.5" width="65" height="20" as="geometry"/></mxCell><mxCell id="AHmyfvcvNI7FUngIQWTA-11" value="" style="endArrow=classic;html=1;exitX=0.5;exitY=1;exitDx=0;exitDy=0;" parent="1" edge="1"><mxGeometry width="50" height="50" relative="1" as="geometry"><mxPoint x="285.24000000000007" y="459" as="sourcePoint"/><mxPoint x="285.16" y="490" as="targetPoint"/></mxGeometry></mxCell><mxCell id="AHmyfvcvNI7FUngIQWTA-12" value="" style="endArrow=classic;html=1;exitX=0.5;exitY=1;exitDx=0;exitDy=0;" parent="1" edge="1"><mxGeometry width="50" height="50" relative="1" as="geometry"><mxPoint x="285.1599999999999" y="628.5" as="sourcePoint"/><mxPoint x="285.08" y="659.5" as="targetPoint"/></mxGeometry></mxCell><mxCell id="AHmyfvcvNI7FUngIQWTA-14" value="Alert for unprocessed files" style="rounded=1;whiteSpace=wrap;html=1;fillColor=#f8cecc;strokeColor=#b85450;" parent="1" vertex="1"><mxGeometry x="230.25" y="662.5" width="110.5" height="40" as="geometry"/></mxCell><mxCell id="AHmyfvcvNI7FUngIQWTA-15" value="&lt;font size=&quot;1&quot; color=&quot;#ff8000&quot;&gt;&lt;b style=&quot;font-size: 12px&quot;&gt;1b&lt;/b&gt;&lt;/font&gt;" style="ellipse;whiteSpace=wrap;html=1;aspect=fixed;fillColor=#ffe6cc;fontSize=8;strokeColor=#d79b00;" parent="1" vertex="1"><mxGeometry x="245.5" y="543.5" width="20" height="20" as="geometry"/></mxCell><mxCell id="AHmyfvcvNI7FUngIQWTA-16" value="" style="endArrow=classic;html=1;" parent="1" edge="1"><mxGeometry width="50" height="50" relative="1" as="geometry"><mxPoint x="188" y="401" as="sourcePoint"/><mxPoint x="229" y="401" as="targetPoint"/></mxGeometry></mxCell><mxCell id="AHmyfvcvNI7FUngIQWTA-19" value="" style="endArrow=classic;html=1;" parent="1" edge="1"><mxGeometry width="50" height="50" relative="1" as="geometry"><mxPoint x="342" y="401" as="sourcePoint"/><mxPoint x="402" y="401" as="targetPoint"/></mxGeometry></mxCell><mxCell id="AHmyfvcvNI7FUngIQWTA-20" value="&lt;font style=&quot;font-size: 8px&quot;&gt;yes&lt;/font&gt;" style="text;html=1;strokeColor=none;fillColor=none;align=center;verticalAlign=middle;whiteSpace=wrap;rounded=0;" parent="1" vertex="1"><mxGeometry x="266.5" y="467" width="13" height="5" as="geometry"/></mxCell><mxCell id="AHmyfvcvNI7FUngIQWTA-23" value="&lt;font style=&quot;font-size: 8px&quot;&gt;no&lt;/font&gt;" style="text;html=1;strokeColor=none;fillColor=none;align=center;verticalAlign=middle;whiteSpace=wrap;rounded=0;" parent="1" vertex="1"><mxGeometry x="364" y="390" width="13" height="5" as="geometry"/></mxCell><mxCell id="AHmyfvcvNI7FUngIQWTA-24" value="SFTP Pull Pattern" style="rounded=1;whiteSpace=wrap;html=1;" parent="1" vertex="1"><mxGeometry x="233.25" y="490.5" width="110" height="30" as="geometry"/></mxCell><mxCell id="AHmyfvcvNI7FUngIQWTA-25" value="" style="endArrow=classic;html=1;exitX=0.5;exitY=1;exitDx=0;exitDy=0;" parent="1" edge="1"><mxGeometry width="50" height="50" relative="1" as="geometry"><mxPoint x="285.29" y="520.5" as="sourcePoint"/><mxPoint x="285.2100000000001" y="551.5" as="targetPoint"/></mxGeometry></mxCell><mxCell id="AHmyfvcvNI7FUngIQWTA-28" value="" style="endArrow=classic;html=1;exitX=1;exitY=0.5;exitDx=0;exitDy=0;" parent="1" source="AHmyfvcvNI7FUngIQWTA-1" target="eHKS3EOxerdEjLhXiZhe-3" edge="1"><mxGeometry width="50" height="50" relative="1" as="geometry"><mxPoint x="295.28999999999996" y="491" as="sourcePoint"/><mxPoint x="295.21000000000004" y="522" as="targetPoint"/><Array as="points"><mxPoint x="492" y="261"/></Array></mxGeometry></mxCell><mxCell id="AHmyfvcvNI7FUngIQWTA-39" value="" style="endArrow=classic;html=1;entryX=0.138;entryY=0.719;entryDx=0;entryDy=0;exitX=1;exitY=0;exitDx=0;exitDy=0;dashed=1;entryPerimeter=0;" parent="1" source="eHKS3EOxerdEjLhXiZhe-10" target="AHmyfvcvNI7FUngIQWTA-44" edge="1"><mxGeometry width="50" height="50" relative="1" as="geometry"><mxPoint x="878" y="537" as="sourcePoint"/><mxPoint x="1009" y="410" as="targetPoint"/></mxGeometry></mxCell><mxCell id="AHmyfvcvNI7FUngIQWTA-40" value="Alert for multiple files" style="rounded=1;whiteSpace=wrap;html=1;fillColor=#f8cecc;strokeColor=#b85450;" parent="1" vertex="1"><mxGeometry x="928" y="515" width="110.5" height="40" as="geometry"/></mxCell><mxCell id="AHmyfvcvNI7FUngIQWTA-41" value="&lt;span style=&quot;color: rgb(0 , 0 , 0) ; font-family: &amp;#34;helvetica&amp;#34; ; font-size: 12px ; font-style: normal ; font-weight: 400 ; letter-spacing: normal ; text-align: center ; text-indent: 0px ; text-transform: none ; word-spacing: 0px ; background-color: rgb(248 , 249 , 250) ; display: inline ; float: none&quot;&gt;Check for unprocessed &lt;br&gt;files&lt;/span&gt;" style="rhombus;whiteSpace=wrap;html=1;rounded=1;arcSize=0;" parent="1" vertex="1"><mxGeometry x="233.25" y="354" width="103" height="103" as="geometry"/></mxCell><mxCell id="AHmyfvcvNI7FUngIQWTA-46" style="edgeStyle=orthogonalEdgeStyle;rounded=0;orthogonalLoop=1;jettySize=auto;html=1;exitX=0.5;exitY=1;exitDx=0;exitDy=0;" parent="1" source="AHmyfvcvNI7FUngIQWTA-44" target="AHmyfvcvNI7FUngIQWTA-40" edge="1"><mxGeometry relative="1" as="geometry"/></mxCell><mxCell id="AHmyfvcvNI7FUngIQWTA-44" value="&lt;span style=&quot;color: rgb(0 , 0 , 0) ; font-family: &amp;#34;helvetica&amp;#34; ; font-size: 12px ; font-style: normal ; font-weight: 400 ; letter-spacing: normal ; text-align: center ; text-indent: 0px ; text-transform: none ; word-spacing: 0px ; background-color: rgb(248 , 249 , 250) ; display: inline ; float: none&quot;&gt;Check for &lt;br&gt;multiple files&lt;/span&gt;" style="rhombus;whiteSpace=wrap;html=1;rounded=1;arcSize=0;" parent="1" vertex="1"><mxGeometry x="931.75" y="343.5" width="103" height="103" as="geometry"/></mxCell><mxCell id="AHmyfvcvNI7FUngIQWTA-48" value="&lt;font style=&quot;font-size: 8px&quot;&gt;yes&lt;/font&gt;" style="text;html=1;strokeColor=none;fillColor=none;align=center;verticalAlign=middle;whiteSpace=wrap;rounded=0;" parent="1" vertex="1"><mxGeometry x="967.75" y="470.27" width="13" height="5" as="geometry"/></mxCell><mxCell id="AHmyfvcvNI7FUngIQWTA-49" value="&lt;font style=&quot;font-size: 8px&quot;&gt;no&lt;/font&gt;" style="text;html=1;strokeColor=none;fillColor=none;align=center;verticalAlign=middle;whiteSpace=wrap;rounded=0;" parent="1" vertex="1"><mxGeometry x="1046" y="385" width="13" height="5" as="geometry"/></mxCell><mxCell id="AHmyfvcvNI7FUngIQWTA-51" value="" style="group" parent="1" vertex="1" connectable="0"><mxGeometry x="1617.25" y="342" width="100" height="62.5" as="geometry"/></mxCell><mxCell id="5e1EL2xwupu4-Lr9WEpU-30" value="" style="shape=image;verticalLabelPosition=bottom;labelBackgroundColor=#ffffff;verticalAlign=top;aspect=fixed;imageAspect=0;image=data:image/svg+xml,PHN2ZyB4bWxucz0iaHR0cDovL3d3dy53My5vcmcvMjAwMC9zdmciIHhtbG5zOnhsaW5rPSJodHRwOi8vd3d3LnczLm9yZy8xOTk5L3hsaW5rIiB2ZXJzaW9uPSIxLjEiIGlkPSJMYXllcl8xIiB4PSIwcHgiIHk9IjBweCIgdmlld0JveD0iMCAwIDY0IDY0IiBlbmFibGUtYmFja2dyb3VuZD0ibmV3IDAgMCA2NCA2NCIgeG1sOnNwYWNlPSJwcmVzZXJ2ZSI+JiN4YTs8Zz4mI3hhOwk8cGF0aCBmaWxsPSIjMzk5OUM2IiBkPSJNNjMuNiwzMi40YzAuNi0wLjYsMC41LTEuNywwLTIuM0w2MC41LDI3TDQ2LjcsMTMuNmMtMC42LTAuNi0xLjUtMC42LTIuMiwwbDAsMGMtMC42LDAuNi0wLjgsMS43LDAsMi4zICAgTDU5LDMwLjFjMC42LDAuNiwwLjYsMS43LDAsMi4zTDQ0LjIsNDcuMWMtMC42LDAuNi0wLjYsMS43LDAsMi4zbDAsMGMwLjYsMC42LDEuNywwLjUsMi4yLDBsMTMuNy0xMy42YzAsMCwwLDAsMC4xLTAuMUw2My42LDMyLjR6ICAgIi8+JiN4YTsJPHBhdGggZmlsbD0iIzM5OTlDNiIgZD0iTTAuNCwzMi40Yy0wLjYtMC42LTAuNS0xLjcsMC0yLjNMMy41LDI3bDEzLjgtMTMuNGMwLjYtMC42LDEuNS0wLjYsMi4yLDBsMCwwYzAuNiwwLjYsMC44LDEuNywwLDIuMyAgIEw1LjMsMzAuMWMtMC42LDAuNi0wLjYsMS43LDAsMi4zbDE0LjUsMTQuN2MwLjYsMC42LDAuNiwxLjcsMCwyLjNsMCwwYy0wLjYsMC42LTEuNywwLjUtMi4yLDBMMy42LDM2YzAsMCwwLDAtMC4xLTAuMUwwLjQsMzIuNHoiLz4mI3hhOwk8cG9seWdvbiBmaWxsPSIjRkNEMTE2IiBwb2ludHM9IjQ3LjYsMi41IDI4LjEsMi41IDE3LjYsMzIuMSAzMC40LDMyLjIgMjAuNCw2MS41IDQ4LDIyLjQgMzQuNiwyMi40ICAiLz4mI3hhOwk8cG9seWdvbiBvcGFjaXR5PSIwLjMiIGZpbGw9IiNGRjhDMDAiIGVuYWJsZS1iYWNrZ3JvdW5kPSJuZXcgICAgIiBwb2ludHM9IjM0LjYsMjIuNCA0Ny42LDIuNSAzNy40LDIuNSAyNi42LDI3LjEgMzkuNCwyNy4yICAgIDIwLjQsNjEuNSA0OCwyMi40ICAiLz4mI3hhOzwvZz4mI3hhOzwvc3ZnPg==;" parent="AHmyfvcvNI7FUngIQWTA-51" vertex="1"><mxGeometry x="28.75" width="42.5" height="42.5" as="geometry"/></mxCell><mxCell id="5e1EL2xwupu4-Lr9WEpU-74" value="&lt;font style=&quot;font-size: 12px&quot;&gt;Dynamic SQL&lt;/font&gt;" style="text;html=1;strokeColor=none;fillColor=none;align=center;verticalAlign=middle;whiteSpace=wrap;rounded=0;fontSize=8;" parent="AHmyfvcvNI7FUngIQWTA-51" vertex="1"><mxGeometry y="42.5" width="100" height="20" as="geometry"/></mxCell><mxCell id="AHmyfvcvNI7FUngIQWTA-79" style="edgeStyle=orthogonalEdgeStyle;rounded=0;orthogonalLoop=1;jettySize=auto;html=1;entryX=0.5;entryY=0;entryDx=0;entryDy=0;" parent="1" source="AHmyfvcvNI7FUngIQWTA-54" target="5e1EL2xwupu4-Lr9WEpU-30" edge="1"><mxGeometry relative="1" as="geometry"><Array as="points"><mxPoint x="1449.25" y="363"/><mxPoint x="1449.25" y="322"/><mxPoint x="1667.25" y="322"/></Array></mxGeometry></mxCell><mxCell id="AHmyfvcvNI7FUngIQWTA-80" style="edgeStyle=orthogonalEdgeStyle;rounded=0;orthogonalLoop=1;jettySize=auto;html=1;entryX=0;entryY=0.5;entryDx=0;entryDy=0;" parent="1" source="AHmyfvcvNI7FUngIQWTA-54" target="5e1EL2xwupu4-Lr9WEpU-28" edge="1"><mxGeometry relative="1" as="geometry"/></mxCell><mxCell id="AHmyfvcvNI7FUngIQWTA-81" style="edgeStyle=orthogonalEdgeStyle;rounded=0;orthogonalLoop=1;jettySize=auto;html=1;entryX=0;entryY=0.5;entryDx=0;entryDy=0;" parent="1" source="5e1EL2xwupu4-Lr9WEpU-28" target="5e1EL2xwupu4-Lr9WEpU-30" edge="1"><mxGeometry relative="1" as="geometry"/></mxCell><mxCell id="AHmyfvcvNI7FUngIQWTA-84" value="&lt;font style=&quot;font-size: 6px&quot;&gt;if schema different&lt;/font&gt;" style="text;html=1;strokeColor=none;fillColor=none;align=center;verticalAlign=middle;whiteSpace=wrap;rounded=0;" parent="1" vertex="1"><mxGeometry x="1440.25" y="367" width="86" height="5" as="geometry"/></mxCell><mxCell id="AHmyfvcvNI7FUngIQWTA-95" style="edgeStyle=orthogonalEdgeStyle;rounded=0;orthogonalLoop=1;jettySize=auto;html=1;entryX=0;entryY=0.5;entryDx=0;entryDy=0;" parent="1" source="AHmyfvcvNI7FUngIQWTA-90" target="5e1EL2xwupu4-Lr9WEpU-80" edge="1"><mxGeometry relative="1" as="geometry"/></mxCell><mxCell id="AHmyfvcvNI7FUngIQWTA-90" value="Data Lake Raw" style="shape=image;verticalLabelPosition=bottom;labelBackgroundColor=none;verticalAlign=top;aspect=fixed;imageAspect=0;image=data:image/svg+xml,PHN2ZyB4bWxucz0iaHR0cDovL3d3dy53My5vcmcvMjAwMC9zdmciIHhtbG5zOnhsaW5rPSJodHRwOi8vd3d3LnczLm9yZy8xOTk5L3hsaW5rIiB2ZXJzaW9uPSIxLjEiIGlkPSJMYXllcl8xIiB4PSIwcHgiIHk9IjBweCIgd2lkdGg9IjUwcHgiIGhlaWdodD0iNTBweCIgdmlld0JveD0iMCAwIDUwIDUwIiBlbmFibGUtYmFja2dyb3VuZD0ibmV3IDAgMCA1MCA1MCIgeG1sOnNwYWNlPSJwcmVzZXJ2ZSI+JiN4YTs8Zz4mI3hhOwk8cGF0aCBmaWxsPSIjM0UzRTNFIiBkPSJNNi4xLDYuOHYzNi4zYzAsMy44LDguNCw2LjgsMTguOSw2LjhWNi44SDYuMXoiLz4mI3hhOwk8cGF0aCBmaWxsPSIjQTBBMUEyIiBkPSJNMjQuNyw1MEgyNWMxMC40LDAsMTguOS0zLjEsMTguOS02LjhWNi44SDI0LjdWNTB6Ii8+JiN4YTsJPHBhdGggZmlsbD0iI0ZGRkZGRiIgZD0iTTQzLjksNi44YzAsMy44LTguNCw2LjgtMTguOSw2LjhTNi4xLDEwLjYsNi4xLDYuOEM2LjEsMy4xLDE0LjYsMCwyNSwwUzQzLjksMy4xLDQzLjksNi44Ii8+JiN4YTsJPHBhdGggZmlsbD0iIzdGQkEwMCIgZD0iTTQwLDYuNGMwLDIuNS02LjcsNC41LTE1LDQuNXMtMTUtMi0xNS00LjVjMC0yLjUsNi43LTQuNSwxNS00LjVTNDAsMy45LDQwLDYuNCIvPiYjeGE7CTxwYXRoIGZpbGw9IiNCOEQ0MzIiIGQ9Ik0zNi45LDkuMmMyLTAuOCwzLjEtMS43LDMuMS0yLjhjMC0yLjUtNi43LTQuNS0xNS00LjVjLTguMywwLTE1LDItMTUsNC41YzAsMSwxLjIsMiwzLjEsMi44ICAgYzIuNy0xLjEsNy0xLjgsMTEuOS0xLjhDMjkuOCw3LjQsMzQuMSw4LjEsMzYuOSw5LjIiLz4mI3hhOzwvZz4mI3hhOzxnPiYjeGE7CTxwYXRoIGZpbGw9IiMzOTk5QzYiIGQ9Ik0yNC43LDUwVjMyYy0yLjgsMC01LjItMS41LTYuNi0zLjdjLTEuNCwyLjItMy43LDMuNy02LjUsMy43Yy0yLjIsMC00LjEtMC45LTUuNS0yLjR2MTMuNiAgIEM2LjEsNDYuOSwxNC40LDQ5LjksMjQuNyw1MHoiLz4mI3hhOwk8cGF0aCBmaWxsPSIjMzk5OUM2IiBkPSJNMjUsNTBMMjUsNTBMMjUsNTBDMjUsNTAsMjUsNTAsMjUsNTB6Ii8+JiN4YTsJPHBhdGggZmlsbD0iIzU5QjREOSIgZD0iTTI0LjcsNTBIMjVDMjQuOSw1MCwyNC44LDUwLDI0LjcsNTBMMjQuNyw1MHoiLz4mI3hhOwk8cGF0aCBmaWxsPSIjNTlCNEQ5IiBkPSJNMzguMSwzMmMtMi44LDAtNS4zLTEuNS02LjctMy43Yy0xLjMsMi4yLTMuNywzLjYtNi41LDMuN3YxOGgwYzEwLjQsMCwxOC45LTMuMSwxOC45LTYuOFYyOS41ICAgQzQyLjQsMzEsNDAuNCwzMiwzOC4xLDMyeiIvPiYjeGE7CTxwYXRoIGZpbGw9IiM1OUI0RDkiIGQ9Ik0yNC44LDMyQzI0LjgsMzIsMjQuOCwzMiwyNC44LDMybC0wLjEsMThjMC4xLDAsMC4xLDAsMC4yLDBoMFYzMkMyNC45LDMyLDI0LjksMzIsMjQuOCwzMnoiLz4mI3hhOzwvZz4mI3hhOzwvc3ZnPg==;" parent="1" vertex="1"><mxGeometry x="1576.25" y="549" width="50" height="50" as="geometry"/></mxCell><mxCell id="AHmyfvcvNI7FUngIQWTA-97" style="edgeStyle=orthogonalEdgeStyle;rounded=0;orthogonalLoop=1;jettySize=auto;html=1;" parent="1" source="5e1EL2xwupu4-Lr9WEpU-74" target="5e1EL2xwupu4-Lr9WEpU-70" edge="1"><mxGeometry relative="1" as="geometry"/></mxCell><mxCell id="AHmyfvcvNI7FUngIQWTA-98" value="" style="endArrow=classic;html=1;" parent="1" edge="1"><mxGeometry width="50" height="50" relative="1" as="geometry"><mxPoint x="1037" y="394.43" as="sourcePoint"/><mxPoint x="1111" y="394" as="targetPoint"/></mxGeometry></mxCell><mxCell id="AHmyfvcvNI7FUngIQWTA-148" style="edgeStyle=orthogonalEdgeStyle;rounded=0;orthogonalLoop=1;jettySize=auto;html=1;exitX=0.5;exitY=1;exitDx=0;exitDy=0;entryX=1;entryY=0.5;entryDx=0;entryDy=0;" parent="1" source="AHmyfvcvNI7FUngIQWTA-99" target="wjCRLZ0c9aTvCrKljIkT-20" edge="1"><mxGeometry relative="1" as="geometry"/></mxCell><mxCell id="AHmyfvcvNI7FUngIQWTA-99" value="" style="rounded=0;whiteSpace=wrap;html=1;fillColor=#f5f5f5;strokeColor=#666666;fontColor=#333333;" parent="1" vertex="1"><mxGeometry x="1806" y="290" width="499" height="362" as="geometry"/></mxCell><mxCell id="AHmyfvcvNI7FUngIQWTA-100" value="" style="rounded=1;whiteSpace=wrap;html=1;strokeColor=#d6b656;fillColor=#fff2cc;fontSize=8;" parent="1" vertex="1"><mxGeometry x="1817" y="312" width="388" height="112" as="geometry"/></mxCell><mxCell id="AHmyfvcvNI7FUngIQWTA-101" value="" style="shape=image;verticalLabelPosition=bottom;labelBackgroundColor=#ffffff;verticalAlign=top;aspect=fixed;imageAspect=0;image=data:image/svg+xml,PHN2ZyB4bWxucz0iaHR0cDovL3d3dy53My5vcmcvMjAwMC9zdmciIHhtbG5zOnhsaW5rPSJodHRwOi8vd3d3LnczLm9yZy8xOTk5L3hsaW5rIiB4bWxuczpzdmc9Imh0dHA6Ly93d3cudzMub3JnLzIwMDAvc3ZnIiBjbGFzcz0iZnhzLXBvcnRhbC1zdmciIGlkPSJGeFN5bWJvbDAtMGZiIiByb2xlPSJwcmVzZW50YXRpb24iIHZpZXdCb3g9IjAgMCAyMy45ODEgMjIiIGZvY3VzYWJsZT0iZmFsc2UiPiYjeGE7PGc+JiN4YTs8dGl0bGUvPiYjeGE7PHRpdGxlPkNvc21vc19EQl8yPC90aXRsZT4mI3hhOzxwYXRoIGNsYXNzPSJtc3BvcnRhbGZ4LXN2Zy1jMTUiIGZpbGw9IiM1OWI0ZDkiIGQ9Ik0gMTkuOCA5LjggQSA3Ljk4IDcuOTggMCAxIDEgMTAuMyA0IGEgNy45NSA3Ljk1IDAgMCAxIDkuNSA1LjggWiIvPiYjeGE7PHBhdGggY2xhc3M9Im1zcG9ydGFsZngtc3ZnLWMwMSIgb3BhY2l0eT0iMC41IiBmaWxsPSIjZmZmZmZmIiBkPSJNIDExIDE0LjkgYSAyLjExMiAyLjExMiAwIDAgMCAtMi4xIC0yLjEgaCAtMC40IEEgMi4wMTUgMi4wMTUgMCAwIDAgNyAxMC4zIEggNC40IGEgNy44IDcuOCAwIDAgMCAxLjkgNi44IGggMi42IGEgMi4yIDIuMiAwIDAgMCAyLjEgLTIuMiBaIG0gMi42IC04LjcgdiAwLjQgaCAtMC45IGEgMi4yIDIuMiAwIDAgMCAwIDQuNCBIIDIwIGEgNy42MjQgNy42MjQgMCAwIDAgLTQuMSAtNi4yIEggMTUgYSAxLjM2NyAxLjM2NyAwIDAgMCAtMS40IDEuNCBaIG0gNi40IDYuMyBoIC00LjMgYSAxLjc5MyAxLjc5MyAwIDAgMCAtMS44IDEuOCBhIDIuOTIgMi45MiAwIDAgMCAwLjIgMC45IGEgMS44MTIgMS44MTIgMCAwIDAgLTEuMiAyLjIgYSAxLjYzMSAxLjYzMSAwIDAgMCAxLjcgMS4yIGggMS4yIGEgNy45NDcgNy45NDcgMCAwIDAgNC4yIC02LjEgWiIvPiYjeGE7PHBhdGggY2xhc3M9Im1zcG9ydGFsZngtc3ZnLWMxMyIgZmlsbD0iI2I4ZDQzMiIgZD0iTSAzLjIgNi40IGEgMC4yMTUgMC4yMTUgMCAwIDEgLTAuMiAtMC4yIEEgMi44IDIuOCAwIDAgMCAwLjIgMy40IGMgLTAuMSAwLjEgLTAuMiAtMC4xIC0wLjIgLTAuMiBBIDAuMjE1IDAuMjE1IDAgMCAxIDAuMiAzIEEgMi44IDIuOCAwIDAgMCAzIDAuMiBjIDAgLTAuMiAwLjEgLTAuMiAwLjIgLTAuMiBzIDAuMyAwIDAuMyAwLjIgQSAyLjggMi44IDAgMCAwIDYuMyAzIGEgMC4yIDAuMiAwIDAgMSAwIDAuNCBhIDIuOCAyLjggMCAwIDAgLTIuOCAyLjggYyAwIDAuMSAtMC4xIDAuMiAtMC4zIDAuMiBaIi8+JiN4YTs8cGF0aCBjbGFzcz0ibXNwb3J0YWxmeC1zdmctYzE1IiBmaWxsPSIjNTliNGQ5IiBkPSJNIDIwLjMgMjIgYyAtMC4xIDAgLTAuMSAwIC0wLjEgLTAuMSBhIDEuNjY2IDEuNjY2IDAgMCAwIC0xLjcgLTEuNiBjIC0wLjEgMCAtMC4xIDAgLTAuMSAtMC4xIHMgMCAtMC4xIDAuMSAtMC4xIGEgMS43MzUgMS43MzUgMCAwIDAgMS43IC0xLjYgYyAwIC0wLjEgMCAtMC4xIDAuMSAtMC4xIHMgMC4xIDAgMC4xIDAuMSBhIDEuNjY2IDEuNjY2IDAgMCAwIDEuNyAxLjYgYyAwLjEgMCAwLjEgMCAwLjEgMC4xIHMgMCAwLjEgLTAuMSAwLjEgYSAxLjczNSAxLjczNSAwIDAgMCAtMS43IDEuNiBjIDAuMSAwLjEgMCAwLjEgLTAuMSAwLjEgWiIvPiYjeGE7PHBhdGggZD0iTSAyMy43IDQuNiBjIC0wLjggLTEuMiAtMi42IC0xLjUgLTUuNSAtMC44IGEgMTkuNzUyIDE5Ljc1MiAwIDAgMCAtMi42IDAuOCBhIDcuODM3IDcuODM3IDAgMCAxIDEuNSAxIGMgMC41IC0wLjEgMSAtMC4zIDEuNCAtMC40IGEgOS4wNzkgOS4wNzkgMCAwIDEgMi4zIC0wLjMgYyAwLjkgMCAxLjQgMC4yIDEuNiAwLjUgYyAwLjMgMC41IDAgMS43IC0xLjYgMy42IGEgOS40MjggOS40MjggMCAwIDEgLTEgMSBhIDM0LjA3OCAzNC4wNzggMCAwIDEgLTYgNC42IEEgMjcuOSAyNy45IDAgMCAxIDcgMTcuNyBjIC0yLjkgMC45IC00LjkgMC45IC01LjMgMC4yIHMgMC40IC0yLjUgMi42IC00LjYgYSAxMS4wMTkgMTEuMDE5IDAgMCAxIC0wLjIgLTEuOCBDIDAuNyAxNC42IC0wLjQgMTcuMyAwLjQgMTguNyBhIDMuNTEgMy41MSAwIDAgMCAzIDEuMiBhIDE1LjA0NyAxNS4wNDcgMCAwIDAgNS4xIC0xLjEgYSAzMy42MjUgMzMuNjI1IDAgMCAwIDYgLTMgYSA0MS44NjkgNDEuODY5IDAgMCAwIDUuNCAtNCBhIDE3LjA0NCAxNy4wNDQgMCAwIDAgMS45IC0xLjkgYyAyIC0yLjMgMi42IC00LjEgMS45IC01LjMgWiIvPiYjeGE7PC9nPiYjeGE7PC9zdmc+;" parent="1" vertex="1"><mxGeometry x="1854.72" y="446.5" width="54.55" height="50" as="geometry"/></mxCell><mxCell id="AHmyfvcvNI7FUngIQWTA-102" value="Cosmos DB&amp;nbsp;&lt;br&gt;Observability" style="text;html=1;strokeColor=none;fillColor=none;align=center;verticalAlign=middle;whiteSpace=wrap;rounded=0;" parent="1" vertex="1"><mxGeometry x="1842" y="507" width="80" height="20" as="geometry"/></mxCell><mxCell id="AHmyfvcvNI7FUngIQWTA-103" style="edgeStyle=orthogonalEdgeStyle;rounded=0;orthogonalLoop=1;jettySize=auto;html=1;" parent="1" source="AHmyfvcvNI7FUngIQWTA-105" target="AHmyfvcvNI7FUngIQWTA-106" edge="1"><mxGeometry relative="1" as="geometry"/></mxCell><mxCell id="AHmyfvcvNI7FUngIQWTA-104" style="edgeStyle=orthogonalEdgeStyle;rounded=0;orthogonalLoop=1;jettySize=auto;html=1;dashed=1;" parent="1" source="AHmyfvcvNI7FUngIQWTA-105" edge="1"><mxGeometry relative="1" as="geometry"><mxPoint x="2122.9999999999995" y="549" as="targetPoint"/></mxGeometry></mxCell><mxCell id="AHmyfvcvNI7FUngIQWTA-105" value="Merge SQL" style="shape=image;html=1;verticalAlign=top;verticalLabelPosition=bottom;labelBackgroundColor=none;imageAspect=0;aspect=fixed;image=https://cdn1.iconfinder.com/data/icons/hawcons/32/700048-icon-89-document-file-sql-128.png;labelPosition=center;align=center;" parent="1" vertex="1"><mxGeometry x="2098" y="446.5" width="50" height="50" as="geometry"/></mxCell><mxCell id="AHmyfvcvNI7FUngIQWTA-106" value="Snowflake&#10; (Curated Layer)" style="shape=image;verticalLabelPosition=bottom;labelBackgroundColor=none;verticalAlign=top;aspect=fixed;imageAspect=0;image=https://globalcorporateventuring.com/content/uploads/2018/08/Snowflake_Computing_blue_icon.png;labelPosition=center;align=center;" parent="1" vertex="1"><mxGeometry x="2218" y="451.86" width="39" height="39.27" as="geometry"/></mxCell><mxCell id="AHmyfvcvNI7FUngIQWTA-107" value="&lt;span style=&quot;font-size: 15px&quot;&gt;&lt;b&gt;&lt;font color=&quot;#ffb570&quot;&gt;Curated Pipeline&lt;/font&gt;&lt;/b&gt;&lt;/span&gt;" style="text;html=1;strokeColor=none;fillColor=none;align=center;verticalAlign=middle;whiteSpace=wrap;rounded=0;fontSize=8;" parent="1" vertex="1"><mxGeometry x="2006" y="292" width="140" height="20" as="geometry"/></mxCell><mxCell id="AHmyfvcvNI7FUngIQWTA-110" value="" style="group" parent="1" vertex="1" connectable="0"><mxGeometry x="2073" y="342" width="100" height="62.5" as="geometry"/></mxCell><mxCell id="AHmyfvcvNI7FUngIQWTA-111" value="" style="shape=image;verticalLabelPosition=bottom;labelBackgroundColor=#ffffff;verticalAlign=top;aspect=fixed;imageAspect=0;image=data:image/svg+xml,PHN2ZyB4bWxucz0iaHR0cDovL3d3dy53My5vcmcvMjAwMC9zdmciIHhtbG5zOnhsaW5rPSJodHRwOi8vd3d3LnczLm9yZy8xOTk5L3hsaW5rIiB2ZXJzaW9uPSIxLjEiIGlkPSJMYXllcl8xIiB4PSIwcHgiIHk9IjBweCIgdmlld0JveD0iMCAwIDY0IDY0IiBlbmFibGUtYmFja2dyb3VuZD0ibmV3IDAgMCA2NCA2NCIgeG1sOnNwYWNlPSJwcmVzZXJ2ZSI+JiN4YTs8Zz4mI3hhOwk8cGF0aCBmaWxsPSIjMzk5OUM2IiBkPSJNNjMuNiwzMi40YzAuNi0wLjYsMC41LTEuNywwLTIuM0w2MC41LDI3TDQ2LjcsMTMuNmMtMC42LTAuNi0xLjUtMC42LTIuMiwwbDAsMGMtMC42LDAuNi0wLjgsMS43LDAsMi4zICAgTDU5LDMwLjFjMC42LDAuNiwwLjYsMS43LDAsMi4zTDQ0LjIsNDcuMWMtMC42LDAuNi0wLjYsMS43LDAsMi4zbDAsMGMwLjYsMC42LDEuNywwLjUsMi4yLDBsMTMuNy0xMy42YzAsMCwwLDAsMC4xLTAuMUw2My42LDMyLjR6ICAgIi8+JiN4YTsJPHBhdGggZmlsbD0iIzM5OTlDNiIgZD0iTTAuNCwzMi40Yy0wLjYtMC42LTAuNS0xLjcsMC0yLjNMMy41LDI3bDEzLjgtMTMuNGMwLjYtMC42LDEuNS0wLjYsMi4yLDBsMCwwYzAuNiwwLjYsMC44LDEuNywwLDIuMyAgIEw1LjMsMzAuMWMtMC42LDAuNi0wLjYsMS43LDAsMi4zbDE0LjUsMTQuN2MwLjYsMC42LDAuNiwxLjcsMCwyLjNsMCwwYy0wLjYsMC42LTEuNywwLjUtMi4yLDBMMy42LDM2YzAsMCwwLDAtMC4xLTAuMUwwLjQsMzIuNHoiLz4mI3hhOwk8cG9seWdvbiBmaWxsPSIjRkNEMTE2IiBwb2ludHM9IjQ3LjYsMi41IDI4LjEsMi41IDE3LjYsMzIuMSAzMC40LDMyLjIgMjAuNCw2MS41IDQ4LDIyLjQgMzQuNiwyMi40ICAiLz4mI3hhOwk8cG9seWdvbiBvcGFjaXR5PSIwLjMiIGZpbGw9IiNGRjhDMDAiIGVuYWJsZS1iYWNrZ3JvdW5kPSJuZXcgICAgIiBwb2ludHM9IjM0LjYsMjIuNCA0Ny42LDIuNSAzNy40LDIuNSAyNi42LDI3LjEgMzkuNCwyNy4yICAgIDIwLjQsNjEuNSA0OCwyMi40ICAiLz4mI3hhOzwvZz4mI3hhOzwvc3ZnPg==;" parent="AHmyfvcvNI7FUngIQWTA-110" vertex="1"><mxGeometry x="28.75" width="42.5" height="42.5" as="geometry"/></mxCell><mxCell id="AHmyfvcvNI7FUngIQWTA-112" value="&lt;font style=&quot;font-size: 12px&quot;&gt;Curated Load&lt;/font&gt;" style="text;html=1;strokeColor=none;fillColor=none;align=center;verticalAlign=middle;whiteSpace=wrap;rounded=0;fontSize=8;" parent="AHmyfvcvNI7FUngIQWTA-110" vertex="1"><mxGeometry y="42.5" width="100" height="20" as="geometry"/></mxCell><mxCell id="AHmyfvcvNI7FUngIQWTA-156" value="&lt;font size=&quot;1&quot; color=&quot;#ff8000&quot;&gt;&lt;b style=&quot;font-size: 12px&quot;&gt;11&lt;/b&gt;&lt;/font&gt;" style="ellipse;whiteSpace=wrap;html=1;aspect=fixed;fillColor=#ffe6cc;fontSize=8;strokeColor=#d79b00;" parent="AHmyfvcvNI7FUngIQWTA-110" vertex="1"><mxGeometry x="18" y="-8" width="20" height="20" as="geometry"/></mxCell><mxCell id="AHmyfvcvNI7FUngIQWTA-119" value="" style="group" parent="1" vertex="1" connectable="0"><mxGeometry x="1842" y="337" width="100" height="62.5" as="geometry"/></mxCell><mxCell id="AHmyfvcvNI7FUngIQWTA-120" value="" style="shape=image;verticalLabelPosition=bottom;labelBackgroundColor=#ffffff;verticalAlign=top;aspect=fixed;imageAspect=0;image=data:image/svg+xml,PHN2ZyB4bWxucz0iaHR0cDovL3d3dy53My5vcmcvMjAwMC9zdmciIHhtbG5zOnhsaW5rPSJodHRwOi8vd3d3LnczLm9yZy8xOTk5L3hsaW5rIiB2ZXJzaW9uPSIxLjEiIGlkPSJMYXllcl8xIiB4PSIwcHgiIHk9IjBweCIgdmlld0JveD0iMCAwIDY0IDY0IiBlbmFibGUtYmFja2dyb3VuZD0ibmV3IDAgMCA2NCA2NCIgeG1sOnNwYWNlPSJwcmVzZXJ2ZSI+JiN4YTs8Zz4mI3hhOwk8cGF0aCBmaWxsPSIjMzk5OUM2IiBkPSJNNjMuNiwzMi40YzAuNi0wLjYsMC41LTEuNywwLTIuM0w2MC41LDI3TDQ2LjcsMTMuNmMtMC42LTAuNi0xLjUtMC42LTIuMiwwbDAsMGMtMC42LDAuNi0wLjgsMS43LDAsMi4zICAgTDU5LDMwLjFjMC42LDAuNiwwLjYsMS43LDAsMi4zTDQ0LjIsNDcuMWMtMC42LDAuNi0wLjYsMS43LDAsMi4zbDAsMGMwLjYsMC42LDEuNywwLjUsMi4yLDBsMTMuNy0xMy42YzAsMCwwLDAsMC4xLTAuMUw2My42LDMyLjR6ICAgIi8+JiN4YTsJPHBhdGggZmlsbD0iIzM5OTlDNiIgZD0iTTAuNCwzMi40Yy0wLjYtMC42LTAuNS0xLjcsMC0yLjNMMy41LDI3bDEzLjgtMTMuNGMwLjYtMC42LDEuNS0wLjYsMi4yLDBsMCwwYzAuNiwwLjYsMC44LDEuNywwLDIuMyAgIEw1LjMsMzAuMWMtMC42LDAuNi0wLjYsMS43LDAsMi4zbDE0LjUsMTQuN2MwLjYsMC42LDAuNiwxLjcsMCwyLjNsMCwwYy0wLjYsMC42LTEuNywwLjUtMi4yLDBMMy42LDM2YzAsMCwwLDAtMC4xLTAuMUwwLjQsMzIuNHoiLz4mI3hhOwk8cG9seWdvbiBmaWxsPSIjRkNEMTE2IiBwb2ludHM9IjQ3LjYsMi41IDI4LjEsMi41IDE3LjYsMzIuMSAzMC40LDMyLjIgMjAuNCw2MS41IDQ4LDIyLjQgMzQuNiwyMi40ICAiLz4mI3hhOwk8cG9seWdvbiBvcGFjaXR5PSIwLjMiIGZpbGw9IiNGRjhDMDAiIGVuYWJsZS1iYWNrZ3JvdW5kPSJuZXcgICAgIiBwb2ludHM9IjM0LjYsMjIuNCA0Ny42LDIuNSAzNy40LDIuNSAyNi42LDI3LjEgMzkuNCwyNy4yICAgIDIwLjQsNjEuNSA0OCwyMi40ICAiLz4mI3hhOzwvZz4mI3hhOzwvc3ZnPg==;" parent="AHmyfvcvNI7FUngIQWTA-119" vertex="1"><mxGeometry x="16.75" width="42.5" height="42.5" as="geometry"/></mxCell><mxCell id="AHmyfvcvNI7FUngIQWTA-121" value="&lt;font style=&quot;font-size: 12px&quot;&gt;Curated Load checkpoint&lt;/font&gt;" style="text;html=1;strokeColor=none;fillColor=none;align=center;verticalAlign=middle;whiteSpace=wrap;rounded=0;fontSize=8;" parent="AHmyfvcvNI7FUngIQWTA-119" vertex="1"><mxGeometry x="-12" y="42.5" width="100" height="20" as="geometry"/></mxCell><mxCell id="AHmyfvcvNI7FUngIQWTA-122" value="" style="edgeStyle=orthogonalEdgeStyle;rounded=0;orthogonalLoop=1;jettySize=auto;html=1;" parent="1" source="AHmyfvcvNI7FUngIQWTA-124" target="AHmyfvcvNI7FUngIQWTA-123" edge="1"><mxGeometry relative="1" as="geometry"/></mxCell><mxCell id="AHmyfvcvNI7FUngIQWTA-123" value="Fail and alert" style="rounded=1;whiteSpace=wrap;html=1;fillColor=#f8cecc;strokeColor=#b85450;" parent="1" vertex="1"><mxGeometry x="1935.75" y="515" width="110.5" height="40" as="geometry"/></mxCell><mxCell id="AHmyfvcvNI7FUngIQWTA-124" value="&lt;span style=&quot;color: rgb(0 , 0 , 0) ; font-family: &amp;#34;helvetica&amp;#34; ; font-style: normal ; font-weight: 400 ; letter-spacing: normal ; text-align: center ; text-indent: 0px ; text-transform: none ; word-spacing: 0px ; background-color: rgb(248 , 249 , 250) ; display: inline ; float: none&quot;&gt;&lt;font style=&quot;font-size: 9px&quot;&gt;Check for &lt;br&gt;previous pipeline success&lt;/font&gt;&lt;/span&gt;" style="rhombus;whiteSpace=wrap;html=1;rounded=1;arcSize=0;" parent="1" vertex="1"><mxGeometry x="1949" y="328" width="84" height="77" as="geometry"/></mxCell><mxCell id="AHmyfvcvNI7FUngIQWTA-125" value="&lt;font color=&quot;#ff8000&quot;&gt;&lt;span style=&quot;font-size: 12px&quot;&gt;&lt;b&gt;10&lt;/b&gt;&lt;/span&gt;&lt;/font&gt;" style="ellipse;whiteSpace=wrap;html=1;aspect=fixed;fillColor=#ffe6cc;fontSize=8;strokeColor=#d79b00;" parent="1" vertex="1"><mxGeometry x="1893" y="330.5" width="20" height="20" as="geometry"/></mxCell><mxCell id="AHmyfvcvNI7FUngIQWTA-126" value="" style="endArrow=classic;html=1;" parent="1" edge="1"><mxGeometry width="50" height="50" relative="1" as="geometry"><mxPoint x="1914" y="362" as="sourcePoint"/><mxPoint x="1950" y="362" as="targetPoint"/></mxGeometry></mxCell><mxCell id="AHmyfvcvNI7FUngIQWTA-127" value="" style="endArrow=classic;html=1;" parent="1" edge="1"><mxGeometry width="50" height="50" relative="1" as="geometry"><mxPoint x="1881.71" y="446.5" as="sourcePoint"/><mxPoint x="1881.71" y="405.5" as="targetPoint"/></mxGeometry></mxCell><mxCell id="AHmyfvcvNI7FUngIQWTA-128" value="&lt;font style=&quot;font-size: 8px&quot;&gt;no&lt;/font&gt;" style="text;html=1;strokeColor=none;fillColor=none;align=center;verticalAlign=middle;whiteSpace=wrap;rounded=0;" parent="1" vertex="1"><mxGeometry x="1974" y="457" width="13" height="5" as="geometry"/></mxCell><mxCell id="AHmyfvcvNI7FUngIQWTA-129" value="&lt;font style=&quot;font-size: 8px&quot;&gt;yes&lt;/font&gt;" style="text;html=1;strokeColor=none;fillColor=none;align=center;verticalAlign=middle;whiteSpace=wrap;rounded=0;" parent="1" vertex="1"><mxGeometry x="2046.25" y="352" width="13" height="5" as="geometry"/></mxCell><mxCell id="AHmyfvcvNI7FUngIQWTA-130" value="" style="endArrow=classic;html=1;" parent="1" edge="1"><mxGeometry width="50" height="50" relative="1" as="geometry"><mxPoint x="2033" y="362.71000000000004" as="sourcePoint"/><mxPoint x="2077" y="363" as="targetPoint"/></mxGeometry></mxCell><mxCell id="AHmyfvcvNI7FUngIQWTA-135" style="edgeStyle=orthogonalEdgeStyle;rounded=0;orthogonalLoop=1;jettySize=auto;html=1;entryX=0;entryY=0.5;entryDx=0;entryDy=0;" parent="1" target="AHmyfvcvNI7FUngIQWTA-106" edge="1"><mxGeometry relative="1" as="geometry"><mxPoint x="2147.9999999999995" y="574" as="sourcePoint"/></mxGeometry></mxCell><mxCell id="AHmyfvcvNI7FUngIQWTA-137" style="edgeStyle=orthogonalEdgeStyle;rounded=0;orthogonalLoop=1;jettySize=auto;html=1;" parent="1" source="AHmyfvcvNI7FUngIQWTA-112" target="AHmyfvcvNI7FUngIQWTA-105" edge="1"><mxGeometry relative="1" as="geometry"/></mxCell><mxCell id="AHmyfvcvNI7FUngIQWTA-138" value="Snowflake&#10; (Structured Layer)" style="shape=image;verticalLabelPosition=bottom;labelBackgroundColor=none;verticalAlign=top;aspect=fixed;imageAspect=0;image=https://globalcorporateventuring.com/content/uploads/2018/08/Snowflake_Computing_blue_icon.png;labelPosition=center;align=center;" parent="1" vertex="1"><mxGeometry x="2103.5" y="549.5" width="39" height="39.27" as="geometry"/></mxCell><mxCell id="AHmyfvcvNI7FUngIQWTA-142" style="edgeStyle=orthogonalEdgeStyle;rounded=0;orthogonalLoop=1;jettySize=auto;html=1;dashed=1;" parent="1" source="AHmyfvcvNI7FUngIQWTA-139" target="5e1EL2xwupu4-Lr9WEpU-70" edge="1"><mxGeometry relative="1" as="geometry"/></mxCell><mxCell id="AHmyfvcvNI7FUngIQWTA-143" style="edgeStyle=orthogonalEdgeStyle;rounded=0;orthogonalLoop=1;jettySize=auto;html=1;dashed=1;entryX=0.5;entryY=0;entryDx=0;entryDy=0;" parent="1" source="5e1EL2xwupu4-Lr9WEpU-28" target="AHmyfvcvNI7FUngIQWTA-139" edge="1"><mxGeometry relative="1" as="geometry"><Array as="points"><mxPoint x="1536" y="430"/><mxPoint x="1468" y="430"/></Array></mxGeometry></mxCell><mxCell id="AHmyfvcvNI7FUngIQWTA-139" value="Cosmos DB &#10;table config&#10;" style="shape=image;verticalLabelPosition=bottom;labelBackgroundColor=none;verticalAlign=top;aspect=fixed;imageAspect=0;image=data:image/svg+xml,PHN2ZyB4bWxucz0iaHR0cDovL3d3dy53My5vcmcvMjAwMC9zdmciIHhtbG5zOnhsaW5rPSJodHRwOi8vd3d3LnczLm9yZy8xOTk5L3hsaW5rIiB4bWxuczpzdmc9Imh0dHA6Ly93d3cudzMub3JnLzIwMDAvc3ZnIiBjbGFzcz0iZnhzLXBvcnRhbC1zdmciIGlkPSJGeFN5bWJvbDAtMGZiIiByb2xlPSJwcmVzZW50YXRpb24iIHZpZXdCb3g9IjAgMCAyMy45ODEgMjIiIGZvY3VzYWJsZT0iZmFsc2UiPiYjeGE7PGc+JiN4YTs8dGl0bGUvPiYjeGE7PHRpdGxlPkNvc21vc19EQl8yPC90aXRsZT4mI3hhOzxwYXRoIGNsYXNzPSJtc3BvcnRhbGZ4LXN2Zy1jMTUiIGZpbGw9IiM1OWI0ZDkiIGQ9Ik0gMTkuOCA5LjggQSA3Ljk4IDcuOTggMCAxIDEgMTAuMyA0IGEgNy45NSA3Ljk1IDAgMCAxIDkuNSA1LjggWiIvPiYjeGE7PHBhdGggY2xhc3M9Im1zcG9ydGFsZngtc3ZnLWMwMSIgb3BhY2l0eT0iMC41IiBmaWxsPSIjZmZmZmZmIiBkPSJNIDExIDE0LjkgYSAyLjExMiAyLjExMiAwIDAgMCAtMi4xIC0yLjEgaCAtMC40IEEgMi4wMTUgMi4wMTUgMCAwIDAgNyAxMC4zIEggNC40IGEgNy44IDcuOCAwIDAgMCAxLjkgNi44IGggMi42IGEgMi4yIDIuMiAwIDAgMCAyLjEgLTIuMiBaIG0gMi42IC04LjcgdiAwLjQgaCAtMC45IGEgMi4yIDIuMiAwIDAgMCAwIDQuNCBIIDIwIGEgNy42MjQgNy42MjQgMCAwIDAgLTQuMSAtNi4yIEggMTUgYSAxLjM2NyAxLjM2NyAwIDAgMCAtMS40IDEuNCBaIG0gNi40IDYuMyBoIC00LjMgYSAxLjc5MyAxLjc5MyAwIDAgMCAtMS44IDEuOCBhIDIuOTIgMi45MiAwIDAgMCAwLjIgMC45IGEgMS44MTIgMS44MTIgMCAwIDAgLTEuMiAyLjIgYSAxLjYzMSAxLjYzMSAwIDAgMCAxLjcgMS4yIGggMS4yIGEgNy45NDcgNy45NDcgMCAwIDAgNC4yIC02LjEgWiIvPiYjeGE7PHBhdGggY2xhc3M9Im1zcG9ydGFsZngtc3ZnLWMxMyIgZmlsbD0iI2I4ZDQzMiIgZD0iTSAzLjIgNi40IGEgMC4yMTUgMC4yMTUgMCAwIDEgLTAuMiAtMC4yIEEgMi44IDIuOCAwIDAgMCAwLjIgMy40IGMgLTAuMSAwLjEgLTAuMiAtMC4xIC0wLjIgLTAuMiBBIDAuMjE1IDAuMjE1IDAgMCAxIDAuMiAzIEEgMi44IDIuOCAwIDAgMCAzIDAuMiBjIDAgLTAuMiAwLjEgLTAuMiAwLjIgLTAuMiBzIDAuMyAwIDAuMyAwLjIgQSAyLjggMi44IDAgMCAwIDYuMyAzIGEgMC4yIDAuMiAwIDAgMSAwIDAuNCBhIDIuOCAyLjggMCAwIDAgLTIuOCAyLjggYyAwIDAuMSAtMC4xIDAuMiAtMC4zIDAuMiBaIi8+JiN4YTs8cGF0aCBjbGFzcz0ibXNwb3J0YWxmeC1zdmctYzE1IiBmaWxsPSIjNTliNGQ5IiBkPSJNIDIwLjMgMjIgYyAtMC4xIDAgLTAuMSAwIC0wLjEgLTAuMSBhIDEuNjY2IDEuNjY2IDAgMCAwIC0xLjcgLTEuNiBjIC0wLjEgMCAtMC4xIDAgLTAuMSAtMC4xIHMgMCAtMC4xIDAuMSAtMC4xIGEgMS43MzUgMS43MzUgMCAwIDAgMS43IC0xLjYgYyAwIC0wLjEgMCAtMC4xIDAuMSAtMC4xIHMgMC4xIDAgMC4xIDAuMSBhIDEuNjY2IDEuNjY2IDAgMCAwIDEuNyAxLjYgYyAwLjEgMCAwLjEgMCAwLjEgMC4xIHMgMCAwLjEgLTAuMSAwLjEgYSAxLjczNSAxLjczNSAwIDAgMCAtMS43IDEuNiBjIDAuMSAwLjEgMCAwLjEgLTAuMSAwLjEgWiIvPiYjeGE7PHBhdGggZD0iTSAyMy43IDQuNiBjIC0wLjggLTEuMiAtMi42IC0xLjUgLTUuNSAtMC44IGEgMTkuNzUyIDE5Ljc1MiAwIDAgMCAtMi42IDAuOCBhIDcuODM3IDcuODM3IDAgMCAxIDEuNSAxIGMgMC41IC0wLjEgMSAtMC4zIDEuNCAtMC40IGEgOS4wNzkgOS4wNzkgMCAwIDEgMi4zIC0wLjMgYyAwLjkgMCAxLjQgMC4yIDEuNiAwLjUgYyAwLjMgMC41IDAgMS43IC0xLjYgMy42IGEgOS40MjggOS40MjggMCAwIDEgLTEgMSBhIDM0LjA3OCAzNC4wNzggMCAwIDEgLTYgNC42IEEgMjcuOSAyNy45IDAgMCAxIDcgMTcuNyBjIC0yLjkgMC45IC00LjkgMC45IC01LjMgMC4yIHMgMC40IC0yLjUgMi42IC00LjYgYSAxMS4wMTkgMTEuMDE5IDAgMCAxIC0wLjIgLTEuOCBDIDAuNyAxNC42IC0wLjQgMTcuMyAwLjQgMTguNyBhIDMuNTEgMy41MSAwIDAgMCAzIDEuMiBhIDE1LjA0NyAxNS4wNDcgMCAwIDAgNS4xIC0xLjEgYSAzMy42MjUgMzMuNjI1IDAgMCAwIDYgLTMgYSA0MS44NjkgNDEuODY5IDAgMCAwIDUuNCAtNCBhIDE3LjA0NCAxNy4wNDQgMCAwIDAgMS45IC0xLjkgYyAyIC0yLjMgMi42IC00LjEgMS45IC01LjMgWiIvPiYjeGE7PC9nPiYjeGE7PC9zdmc+;" parent="1" vertex="1"><mxGeometry x="1440.25" y="446.5" width="54.55" height="50" as="geometry"/></mxCell><mxCell id="AHmyfvcvNI7FUngIQWTA-140" style="edgeStyle=orthogonalEdgeStyle;rounded=0;orthogonalLoop=1;jettySize=auto;html=1;exitX=0.5;exitY=1;exitDx=0;exitDy=0;entryX=0.104;entryY=1.048;entryDx=0;entryDy=0;entryPerimeter=0;" parent="1" source="AHmyfvcvNI7FUngIQWTA-139" target="AHmyfvcvNI7FUngIQWTA-139" edge="1"><mxGeometry relative="1" as="geometry"/></mxCell><mxCell id="AHmyfvcvNI7FUngIQWTA-54" value="XSD difference &#10;checker" style="shape=image;verticalLabelPosition=bottom;labelBackgroundColor=none;verticalAlign=top;aspect=fixed;imageAspect=0;image=data:image/svg+xml,PHN2ZyB4bWxucz0iaHR0cDovL3d3dy53My5vcmcvMjAwMC9zdmciIHhtbG5zOnhsaW5rPSJodHRwOi8vd3d3LnczLm9yZy8xOTk5L3hsaW5rIiB2ZXJzaW9uPSIxLjEiIGlkPSJMYXllcl8xIiB4PSIwcHgiIHk9IjBweCIgdmlld0JveD0iMCAwIDY0IDY0IiBlbmFibGUtYmFja2dyb3VuZD0ibmV3IDAgMCA2NCA2NCIgeG1sOnNwYWNlPSJwcmVzZXJ2ZSI+JiN4YTs8Zz4mI3hhOwk8cGF0aCBmaWxsPSIjMzk5OUM2IiBkPSJNNjMuNiwzMi40YzAuNi0wLjYsMC41LTEuNywwLTIuM0w2MC41LDI3TDQ2LjcsMTMuNmMtMC42LTAuNi0xLjUtMC42LTIuMiwwbDAsMGMtMC42LDAuNi0wLjgsMS43LDAsMi4zICAgTDU5LDMwLjFjMC42LDAuNiwwLjYsMS43LDAsMi4zTDQ0LjIsNDcuMWMtMC42LDAuNi0wLjYsMS43LDAsMi4zbDAsMGMwLjYsMC42LDEuNywwLjUsMi4yLDBsMTMuNy0xMy42YzAsMCwwLDAsMC4xLTAuMUw2My42LDMyLjR6ICAgIi8+JiN4YTsJPHBhdGggZmlsbD0iIzM5OTlDNiIgZD0iTTAuNCwzMi40Yy0wLjYtMC42LTAuNS0xLjcsMC0yLjNMMy41LDI3bDEzLjgtMTMuNGMwLjYtMC42LDEuNS0wLjYsMi4yLDBsMCwwYzAuNiwwLjYsMC44LDEuNywwLDIuMyAgIEw1LjMsMzAuMWMtMC42LDAuNi0wLjYsMS43LDAsMi4zbDE0LjUsMTQuN2MwLjYsMC42LDAuNiwxLjcsMCwyLjNsMCwwYy0wLjYsMC42LTEuNywwLjUtMi4yLDBMMy42LDM2YzAsMCwwLDAtMC4xLTAuMUwwLjQsMzIuNHoiLz4mI3hhOwk8cG9seWdvbiBmaWxsPSIjRkNEMTE2IiBwb2ludHM9IjQ3LjYsMi41IDI4LjEsMi41IDE3LjYsMzIuMSAzMC40LDMyLjIgMjAuNCw2MS41IDQ4LDIyLjQgMzQuNiwyMi40ICAiLz4mI3hhOwk8cG9seWdvbiBvcGFjaXR5PSIwLjMiIGZpbGw9IiNGRjhDMDAiIGVuYWJsZS1iYWNrZ3JvdW5kPSJuZXcgICAgIiBwb2ludHM9IjM0LjYsMjIuNCA0Ny42LDIuNSAzNy40LDIuNSAyNi42LDI3LjEgMzkuNCwyNy4yICAgIDIwLjQsNjEuNSA0OCwyMi40ICAiLz4mI3hhOzwvZz4mI3hhOzwvc3ZnPg==;" parent="1" vertex="1"><mxGeometry x="1379" y="342" width="42.5" height="42.5" as="geometry"/></mxCell><mxCell id="5e1EL2xwupu4-Lr9WEpU-28" value="XML Config&#10;Generator" style="shape=image;verticalLabelPosition=bottom;labelBackgroundColor=none;verticalAlign=top;aspect=fixed;imageAspect=0;image=data:image/svg+xml,PHN2ZyB4bWxucz0iaHR0cDovL3d3dy53My5vcmcvMjAwMC9zdmciIHhtbG5zOnhsaW5rPSJodHRwOi8vd3d3LnczLm9yZy8xOTk5L3hsaW5rIiB2ZXJzaW9uPSIxLjEiIGlkPSJMYXllcl8xIiB4PSIwcHgiIHk9IjBweCIgdmlld0JveD0iMCAwIDY0IDY0IiBlbmFibGUtYmFja2dyb3VuZD0ibmV3IDAgMCA2NCA2NCIgeG1sOnNwYWNlPSJwcmVzZXJ2ZSI+JiN4YTs8Zz4mI3hhOwk8cGF0aCBmaWxsPSIjMzk5OUM2IiBkPSJNNjMuNiwzMi40YzAuNi0wLjYsMC41LTEuNywwLTIuM0w2MC41LDI3TDQ2LjcsMTMuNmMtMC42LTAuNi0xLjUtMC42LTIuMiwwbDAsMGMtMC42LDAuNi0wLjgsMS43LDAsMi4zICAgTDU5LDMwLjFjMC42LDAuNiwwLjYsMS43LDAsMi4zTDQ0LjIsNDcuMWMtMC42LDAuNi0wLjYsMS43LDAsMi4zbDAsMGMwLjYsMC42LDEuNywwLjUsMi4yLDBsMTMuNy0xMy42YzAsMCwwLDAsMC4xLTAuMUw2My42LDMyLjR6ICAgIi8+JiN4YTsJPHBhdGggZmlsbD0iIzM5OTlDNiIgZD0iTTAuNCwzMi40Yy0wLjYtMC42LTAuNS0xLjcsMC0yLjNMMy41LDI3bDEzLjgtMTMuNGMwLjYtMC42LDEuNS0wLjYsMi4yLDBsMCwwYzAuNiwwLjYsMC44LDEuNywwLDIuMyAgIEw1LjMsMzAuMWMtMC42LDAuNi0wLjYsMS43LDAsMi4zbDE0LjUsMTQuN2MwLjYsMC42LDAuNiwxLjcsMCwyLjNsMCwwYy0wLjYsMC42LTEuNywwLjUtMi4yLDBMMy42LDM2YzAsMCwwLDAtMC4xLTAuMUwwLjQsMzIuNHoiLz4mI3hhOwk8cG9seWdvbiBmaWxsPSIjRkNEMTE2IiBwb2ludHM9IjQ3LjYsMi41IDI4LjEsMi41IDE3LjYsMzIuMSAzMC40LDMyLjIgMjAuNCw2MS41IDQ4LDIyLjQgMzQuNiwyMi40ICAiLz4mI3hhOwk8cG9seWdvbiBvcGFjaXR5PSIwLjMiIGZpbGw9IiNGRjhDMDAiIGVuYWJsZS1iYWNrZ3JvdW5kPSJuZXcgICAgIiBwb2ludHM9IjM0LjYsMjIuNCA0Ny42LDIuNSAzNy40LDIuNSAyNi42LDI3LjEgMzkuNCwyNy4yICAgIDIwLjQsNjEuNSA0OCwyMi40ICAiLz4mI3hhOzwvZz4mI3hhOzwvc3ZnPg==;" parent="1" vertex="1"><mxGeometry x="1515" y="342" width="42.5" height="42.5" as="geometry"/></mxCell><mxCell id="AHmyfvcvNI7FUngIQWTA-145" style="edgeStyle=orthogonalEdgeStyle;rounded=0;orthogonalLoop=1;jettySize=auto;html=1;exitX=1;exitY=0.5;exitDx=0;exitDy=0;entryX=0;entryY=0.5;entryDx=0;entryDy=0;" parent="1" source="5e1EL2xwupu4-Lr9WEpU-63" target="AHmyfvcvNI7FUngIQWTA-100" edge="1"><mxGeometry relative="1" as="geometry"/></mxCell><mxCell id="AHmyfvcvNI7FUngIQWTA-152" value="&lt;font size=&quot;1&quot; color=&quot;#ff8000&quot;&gt;&lt;b style=&quot;font-size: 12px&quot;&gt;7&lt;/b&gt;&lt;/font&gt;" style="ellipse;whiteSpace=wrap;html=1;aspect=fixed;fillColor=#ffe6cc;fontSize=8;strokeColor=#d79b00;" parent="1" vertex="1"><mxGeometry x="1413" y="326.5" width="20" height="20" as="geometry"/></mxCell><mxCell id="AHmyfvcvNI7FUngIQWTA-153" value="&lt;font size=&quot;1&quot; color=&quot;#ff8000&quot;&gt;&lt;b style=&quot;font-size: 12px&quot;&gt;8&lt;/b&gt;&lt;/font&gt;" style="ellipse;whiteSpace=wrap;html=1;aspect=fixed;fillColor=#ffe6cc;fontSize=8;strokeColor=#d79b00;" parent="1" vertex="1"><mxGeometry x="1544" y="328.5" width="20" height="20" as="geometry"/></mxCell><mxCell id="AHmyfvcvNI7FUngIQWTA-154" value="&lt;font size=&quot;1&quot; color=&quot;#ff8000&quot;&gt;&lt;b style=&quot;font-size: 12px&quot;&gt;9&lt;/b&gt;&lt;/font&gt;" style="ellipse;whiteSpace=wrap;html=1;aspect=fixed;fillColor=#ffe6cc;fontSize=8;strokeColor=#d79b00;" parent="1" vertex="1"><mxGeometry x="1676.25" y="330" width="20" height="20" as="geometry"/></mxCell><mxCell id="AHmyfvcvNI7FUngIQWTA-155" value="&lt;font size=&quot;1&quot; color=&quot;#ff8000&quot;&gt;&lt;b style=&quot;font-size: 12px&quot;&gt;8a&lt;/b&gt;&lt;/font&gt;" style="ellipse;whiteSpace=wrap;html=1;aspect=fixed;fillColor=#ffe6cc;fontSize=8;strokeColor=#d79b00;" parent="1" vertex="1"><mxGeometry x="1672" y="444.5" width="20" height="20" as="geometry"/></mxCell><mxCell id="na1el5J-OUnfa2npnyr6-1" value="&lt;font size=&quot;1&quot; color=&quot;#ff8000&quot;&gt;&lt;b style=&quot;font-size: 12px&quot;&gt;1&lt;/b&gt;&lt;/font&gt;" style="ellipse;whiteSpace=wrap;html=1;aspect=fixed;fillColor=#ffe6cc;fontSize=8;strokeColor=#d79b00;" parent="1" vertex="1"><mxGeometry x="318" y="265.5" width="20" height="20" as="geometry"/></mxCell><mxCell id="9MO3_OXOUGIxZCUw2X8g-1" value="Cosmos DB &#10;Observability" style="shape=image;verticalLabelPosition=bottom;labelBackgroundColor=none;verticalAlign=top;aspect=fixed;imageAspect=0;image=data:image/svg+xml,PHN2ZyB4bWxucz0iaHR0cDovL3d3dy53My5vcmcvMjAwMC9zdmciIHhtbG5zOnhsaW5rPSJodHRwOi8vd3d3LnczLm9yZy8xOTk5L3hsaW5rIiB4bWxuczpzdmc9Imh0dHA6Ly93d3cudzMub3JnLzIwMDAvc3ZnIiBjbGFzcz0iZnhzLXBvcnRhbC1zdmciIGlkPSJGeFN5bWJvbDAtMGZiIiByb2xlPSJwcmVzZW50YXRpb24iIHZpZXdCb3g9IjAgMCAyMy45ODEgMjIiIGZvY3VzYWJsZT0iZmFsc2UiPiYjeGE7PGc+JiN4YTs8dGl0bGUvPiYjeGE7PHRpdGxlPkNvc21vc19EQl8yPC90aXRsZT4mI3hhOzxwYXRoIGNsYXNzPSJtc3BvcnRhbGZ4LXN2Zy1jMTUiIGZpbGw9IiM1OWI0ZDkiIGQ9Ik0gMTkuOCA5LjggQSA3Ljk4IDcuOTggMCAxIDEgMTAuMyA0IGEgNy45NSA3Ljk1IDAgMCAxIDkuNSA1LjggWiIvPiYjeGE7PHBhdGggY2xhc3M9Im1zcG9ydGFsZngtc3ZnLWMwMSIgb3BhY2l0eT0iMC41IiBmaWxsPSIjZmZmZmZmIiBkPSJNIDExIDE0LjkgYSAyLjExMiAyLjExMiAwIDAgMCAtMi4xIC0yLjEgaCAtMC40IEEgMi4wMTUgMi4wMTUgMCAwIDAgNyAxMC4zIEggNC40IGEgNy44IDcuOCAwIDAgMCAxLjkgNi44IGggMi42IGEgMi4yIDIuMiAwIDAgMCAyLjEgLTIuMiBaIG0gMi42IC04LjcgdiAwLjQgaCAtMC45IGEgMi4yIDIuMiAwIDAgMCAwIDQuNCBIIDIwIGEgNy42MjQgNy42MjQgMCAwIDAgLTQuMSAtNi4yIEggMTUgYSAxLjM2NyAxLjM2NyAwIDAgMCAtMS40IDEuNCBaIG0gNi40IDYuMyBoIC00LjMgYSAxLjc5MyAxLjc5MyAwIDAgMCAtMS44IDEuOCBhIDIuOTIgMi45MiAwIDAgMCAwLjIgMC45IGEgMS44MTIgMS44MTIgMCAwIDAgLTEuMiAyLjIgYSAxLjYzMSAxLjYzMSAwIDAgMCAxLjcgMS4yIGggMS4yIGEgNy45NDcgNy45NDcgMCAwIDAgNC4yIC02LjEgWiIvPiYjeGE7PHBhdGggY2xhc3M9Im1zcG9ydGFsZngtc3ZnLWMxMyIgZmlsbD0iI2I4ZDQzMiIgZD0iTSAzLjIgNi40IGEgMC4yMTUgMC4yMTUgMCAwIDEgLTAuMiAtMC4yIEEgMi44IDIuOCAwIDAgMCAwLjIgMy40IGMgLTAuMSAwLjEgLTAuMiAtMC4xIC0wLjIgLTAuMiBBIDAuMjE1IDAuMjE1IDAgMCAxIDAuMiAzIEEgMi44IDIuOCAwIDAgMCAzIDAuMiBjIDAgLTAuMiAwLjEgLTAuMiAwLjIgLTAuMiBzIDAuMyAwIDAuMyAwLjIgQSAyLjggMi44IDAgMCAwIDYuMyAzIGEgMC4yIDAuMiAwIDAgMSAwIDAuNCBhIDIuOCAyLjggMCAwIDAgLTIuOCAyLjggYyAwIDAuMSAtMC4xIDAuMiAtMC4zIDAuMiBaIi8+JiN4YTs8cGF0aCBjbGFzcz0ibXNwb3J0YWxmeC1zdmctYzE1IiBmaWxsPSIjNTliNGQ5IiBkPSJNIDIwLjMgMjIgYyAtMC4xIDAgLTAuMSAwIC0wLjEgLTAuMSBhIDEuNjY2IDEuNjY2IDAgMCAwIC0xLjcgLTEuNiBjIC0wLjEgMCAtMC4xIDAgLTAuMSAtMC4xIHMgMCAtMC4xIDAuMSAtMC4xIGEgMS43MzUgMS43MzUgMCAwIDAgMS43IC0xLjYgYyAwIC0wLjEgMCAtMC4xIDAuMSAtMC4xIHMgMC4xIDAgMC4xIDAuMSBhIDEuNjY2IDEuNjY2IDAgMCAwIDEuNyAxLjYgYyAwLjEgMCAwLjEgMCAwLjEgMC4xIHMgMCAwLjEgLTAuMSAwLjEgYSAxLjczNSAxLjczNSAwIDAgMCAtMS43IDEuNiBjIDAuMSAwLjEgMCAwLjEgLTAuMSAwLjEgWiIvPiYjeGE7PHBhdGggZD0iTSAyMy43IDQuNiBjIC0wLjggLTEuMiAtMi42IC0xLjUgLTUuNSAtMC44IGEgMTkuNzUyIDE5Ljc1MiAwIDAgMCAtMi42IDAuOCBhIDcuODM3IDcuODM3IDAgMCAxIDEuNSAxIGMgMC41IC0wLjEgMSAtMC4zIDEuNCAtMC40IGEgOS4wNzkgOS4wNzkgMCAwIDEgMi4zIC0wLjMgYyAwLjkgMCAxLjQgMC4yIDEuNiAwLjUgYyAwLjMgMC41IDAgMS43IC0xLjYgMy42IGEgOS40MjggOS40MjggMCAwIDEgLTEgMSBhIDM0LjA3OCAzNC4wNzggMCAwIDEgLTYgNC42IEEgMjcuOSAyNy45IDAgMCAxIDcgMTcuNyBjIC0yLjkgMC45IC00LjkgMC45IC01LjMgMC4yIHMgMC40IC0yLjUgMi42IC00LjYgYSAxMS4wMTkgMTEuMDE5IDAgMCAxIC0wLjIgLTEuOCBDIDAuNyAxNC42IC0wLjQgMTcuMyAwLjQgMTguNyBhIDMuNTEgMy41MSAwIDAgMCAzIDEuMiBhIDE1LjA0NyAxNS4wNDcgMCAwIDAgNS4xIC0xLjEgYSAzMy42MjUgMzMuNjI1IDAgMCAwIDYgLTMgYSA0MS44NjkgNDEuODY5IDAgMCAwIDUuNCAtNCBhIDE3LjA0NCAxNy4wNDQgMCAwIDAgMS45IC0xLjkgYyAyIC0yLjMgMi42IC00LjEgMS45IC01LjMgWiIvPiYjeGE7PC9nPiYjeGE7PC9zdmc+;" parent="1" vertex="1"><mxGeometry x="1353" y="917" width="54.55" height="50" as="geometry"/></mxCell><mxCell id="moFzNWKt4HSQiU7KeDx3-1" value="&lt;font style=&quot;font-size: 15px&quot; color=&quot;#ffb570&quot;&gt;&lt;b&gt;Acquisition Pipeline&amp;nbsp;&lt;/b&gt;&lt;/font&gt;" style="text;html=1;strokeColor=none;fillColor=none;align=center;verticalAlign=middle;whiteSpace=wrap;rounded=0;fontSize=8;" parent="1" vertex="1"><mxGeometry x="697" y="290" width="175" height="20" as="geometry"/></mxCell><mxCell id="moFzNWKt4HSQiU7KeDx3-2" value="&lt;font size=&quot;1&quot;&gt;&lt;b style=&quot;font-size: 12px&quot;&gt;2&lt;/b&gt;&lt;/font&gt;" style="ellipse;whiteSpace=wrap;html=1;aspect=fixed;fillColor=#fff2cc;fontSize=8;strokeColor=#d6b656;" parent="1" vertex="1"><mxGeometry x="1367" y="802" width="20" height="20" as="geometry"/></mxCell><mxCell id="moFzNWKt4HSQiU7KeDx3-3" value="&lt;font size=&quot;1&quot;&gt;&lt;b style=&quot;font-size: 12px&quot;&gt;1&lt;/b&gt;&lt;/font&gt;" style="ellipse;whiteSpace=wrap;html=1;aspect=fixed;fillColor=#fff2cc;fontSize=8;strokeColor=#d6b656;" parent="1" vertex="1"><mxGeometry x="1148" y="802" width="20" height="20" as="geometry"/></mxCell><mxCell id="yfdQ7StdcLDw8oNEx_Lg-2" value="" style="group" vertex="1" connectable="0" parent="1"><mxGeometry x="1129" y="394" width="100" height="62.5" as="geometry"/></mxCell><mxCell id="yfdQ7StdcLDw8oNEx_Lg-3" value="" style="shape=image;verticalLabelPosition=bottom;labelBackgroundColor=#ffffff;verticalAlign=top;aspect=fixed;imageAspect=0;image=data:image/svg+xml,PHN2ZyB4bWxucz0iaHR0cDovL3d3dy53My5vcmcvMjAwMC9zdmciIHhtbG5zOnhsaW5rPSJodHRwOi8vd3d3LnczLm9yZy8xOTk5L3hsaW5rIiB2ZXJzaW9uPSIxLjEiIGlkPSJMYXllcl8xIiB4PSIwcHgiIHk9IjBweCIgdmlld0JveD0iMCAwIDY0IDY0IiBlbmFibGUtYmFja2dyb3VuZD0ibmV3IDAgMCA2NCA2NCIgeG1sOnNwYWNlPSJwcmVzZXJ2ZSI+JiN4YTs8Zz4mI3hhOwk8cGF0aCBmaWxsPSIjMzk5OUM2IiBkPSJNNjMuNiwzMi40YzAuNi0wLjYsMC41LTEuNywwLTIuM0w2MC41LDI3TDQ2LjcsMTMuNmMtMC42LTAuNi0xLjUtMC42LTIuMiwwbDAsMGMtMC42LDAuNi0wLjgsMS43LDAsMi4zICAgTDU5LDMwLjFjMC42LDAuNiwwLjYsMS43LDAsMi4zTDQ0LjIsNDcuMWMtMC42LDAuNi0wLjYsMS43LDAsMi4zbDAsMGMwLjYsMC42LDEuNywwLjUsMi4yLDBsMTMuNy0xMy42YzAsMCwwLDAsMC4xLTAuMUw2My42LDMyLjR6ICAgIi8+JiN4YTsJPHBhdGggZmlsbD0iIzM5OTlDNiIgZD0iTTAuNCwzMi40Yy0wLjYtMC42LTAuNS0xLjcsMC0yLjNMMy41LDI3bDEzLjgtMTMuNGMwLjYtMC42LDEuNS0wLjYsMi4yLDBsMCwwYzAuNiwwLjYsMC44LDEuNywwLDIuMyAgIEw1LjMsMzAuMWMtMC42LDAuNi0wLjYsMS43LDAsMi4zbDE0LjUsMTQuN2MwLjYsMC42LDAuNiwxLjcsMCwyLjNsMCwwYy0wLjYsMC42LTEuNywwLjUtMi4yLDBMMy42LDM2YzAsMCwwLDAtMC4xLTAuMUwwLjQsMzIuNHoiLz4mI3hhOwk8cG9seWdvbiBmaWxsPSIjRkNEMTE2IiBwb2ludHM9IjQ3LjYsMi41IDI4LjEsMi41IDE3LjYsMzIuMSAzMC40LDMyLjIgMjAuNCw2MS41IDQ4LDIyLjQgMzQuNiwyMi40ICAiLz4mI3hhOwk8cG9seWdvbiBvcGFjaXR5PSIwLjMiIGZpbGw9IiNGRjhDMDAiIGVuYWJsZS1iYWNrZ3JvdW5kPSJuZXcgICAgIiBwb2ludHM9IjM0LjYsMjIuNCA0Ny42LDIuNSAzNy40LDIuNSAyNi42LDI3LjEgMzkuNCwyNy4yICAgIDIwLjQsNjEuNSA0OCwyMi40ICAiLz4mI3hhOzwvZz4mI3hhOzwvc3ZnPg==;" vertex="1" parent="yfdQ7StdcLDw8oNEx_Lg-2"><mxGeometry x="26.75" width="42.5" height="42.5" as="geometry"/></mxCell><mxCell id="yfdQ7StdcLDw8oNEx_Lg-4" value="&lt;font style=&quot;font-size: 12px&quot;&gt;Azure Function&amp;nbsp; Checkpoint&lt;/font&gt;" style="text;html=1;strokeColor=none;fillColor=none;align=center;verticalAlign=middle;whiteSpace=wrap;rounded=0;fontSize=8;" vertex="1" parent="yfdQ7StdcLDw8oNEx_Lg-2"><mxGeometry y="42.5" width="100" height="20" as="geometry"/></mxCell><mxCell id="yfdQ7StdcLDw8oNEx_Lg-5" value="" style="group" vertex="1" connectable="0" parent="1"><mxGeometry x="1123" y="244" width="108.97000000000003" height="80" as="geometry"/></mxCell><mxCell id="yfdQ7StdcLDw8oNEx_Lg-6" value="" style="shape=image;verticalLabelPosition=bottom;labelBackgroundColor=#ffffff;verticalAlign=top;aspect=fixed;imageAspect=0;image=data:image/svg+xml,PHN2ZyB4bWxucz0iaHR0cDovL3d3dy53My5vcmcvMjAwMC9zdmciIHhtbG5zOnhsaW5rPSJodHRwOi8vd3d3LnczLm9yZy8xOTk5L3hsaW5rIiB4bWxuczpzdmc9Imh0dHA6Ly93d3cudzMub3JnLzIwMDAvc3ZnIiBjbGFzcz0iZnhzLXBvcnRhbC1zdmciIGlkPSJGeFN5bWJvbDAtMGZiIiByb2xlPSJwcmVzZW50YXRpb24iIHZpZXdCb3g9IjAgMCAyMy45ODEgMjIiIGZvY3VzYWJsZT0iZmFsc2UiPiYjeGE7PGc+JiN4YTs8dGl0bGUvPiYjeGE7PHRpdGxlPkNvc21vc19EQl8yPC90aXRsZT4mI3hhOzxwYXRoIGNsYXNzPSJtc3BvcnRhbGZ4LXN2Zy1jMTUiIGZpbGw9IiM1OWI0ZDkiIGQ9Ik0gMTkuOCA5LjggQSA3Ljk4IDcuOTggMCAxIDEgMTAuMyA0IGEgNy45NSA3Ljk1IDAgMCAxIDkuNSA1LjggWiIvPiYjeGE7PHBhdGggY2xhc3M9Im1zcG9ydGFsZngtc3ZnLWMwMSIgb3BhY2l0eT0iMC41IiBmaWxsPSIjZmZmZmZmIiBkPSJNIDExIDE0LjkgYSAyLjExMiAyLjExMiAwIDAgMCAtMi4xIC0yLjEgaCAtMC40IEEgMi4wMTUgMi4wMTUgMCAwIDAgNyAxMC4zIEggNC40IGEgNy44IDcuOCAwIDAgMCAxLjkgNi44IGggMi42IGEgMi4yIDIuMiAwIDAgMCAyLjEgLTIuMiBaIG0gMi42IC04LjcgdiAwLjQgaCAtMC45IGEgMi4yIDIuMiAwIDAgMCAwIDQuNCBIIDIwIGEgNy42MjQgNy42MjQgMCAwIDAgLTQuMSAtNi4yIEggMTUgYSAxLjM2NyAxLjM2NyAwIDAgMCAtMS40IDEuNCBaIG0gNi40IDYuMyBoIC00LjMgYSAxLjc5MyAxLjc5MyAwIDAgMCAtMS44IDEuOCBhIDIuOTIgMi45MiAwIDAgMCAwLjIgMC45IGEgMS44MTIgMS44MTIgMCAwIDAgLTEuMiAyLjIgYSAxLjYzMSAxLjYzMSAwIDAgMCAxLjcgMS4yIGggMS4yIGEgNy45NDcgNy45NDcgMCAwIDAgNC4yIC02LjEgWiIvPiYjeGE7PHBhdGggY2xhc3M9Im1zcG9ydGFsZngtc3ZnLWMxMyIgZmlsbD0iI2I4ZDQzMiIgZD0iTSAzLjIgNi40IGEgMC4yMTUgMC4yMTUgMCAwIDEgLTAuMiAtMC4yIEEgMi44IDIuOCAwIDAgMCAwLjIgMy40IGMgLTAuMSAwLjEgLTAuMiAtMC4xIC0wLjIgLTAuMiBBIDAuMjE1IDAuMjE1IDAgMCAxIDAuMiAzIEEgMi44IDIuOCAwIDAgMCAzIDAuMiBjIDAgLTAuMiAwLjEgLTAuMiAwLjIgLTAuMiBzIDAuMyAwIDAuMyAwLjIgQSAyLjggMi44IDAgMCAwIDYuMyAzIGEgMC4yIDAuMiAwIDAgMSAwIDAuNCBhIDIuOCAyLjggMCAwIDAgLTIuOCAyLjggYyAwIDAuMSAtMC4xIDAuMiAtMC4zIDAuMiBaIi8+JiN4YTs8cGF0aCBjbGFzcz0ibXNwb3J0YWxmeC1zdmctYzE1IiBmaWxsPSIjNTliNGQ5IiBkPSJNIDIwLjMgMjIgYyAtMC4xIDAgLTAuMSAwIC0wLjEgLTAuMSBhIDEuNjY2IDEuNjY2IDAgMCAwIC0xLjcgLTEuNiBjIC0wLjEgMCAtMC4xIDAgLTAuMSAtMC4xIHMgMCAtMC4xIDAuMSAtMC4xIGEgMS43MzUgMS43MzUgMCAwIDAgMS43IC0xLjYgYyAwIC0wLjEgMCAtMC4xIDAuMSAtMC4xIHMgMC4xIDAgMC4xIDAuMSBhIDEuNjY2IDEuNjY2IDAgMCAwIDEuNyAxLjYgYyAwLjEgMCAwLjEgMCAwLjEgMC4xIHMgMCAwLjEgLTAuMSAwLjEgYSAxLjczNSAxLjczNSAwIDAgMCAtMS43IDEuNiBjIDAuMSAwLjEgMCAwLjEgLTAuMSAwLjEgWiIvPiYjeGE7PHBhdGggZD0iTSAyMy43IDQuNiBjIC0wLjggLTEuMiAtMi42IC0xLjUgLTUuNSAtMC44IGEgMTkuNzUyIDE5Ljc1MiAwIDAgMCAtMi42IDAuOCBhIDcuODM3IDcuODM3IDAgMCAxIDEuNSAxIGMgMC41IC0wLjEgMSAtMC4zIDEuNCAtMC40IGEgOS4wNzkgOS4wNzkgMCAwIDEgMi4zIC0wLjMgYyAwLjkgMCAxLjQgMC4yIDEuNiAwLjUgYyAwLjMgMC41IDAgMS43IC0xLjYgMy42IGEgOS40MjggOS40MjggMCAwIDEgLTEgMSBhIDM0LjA3OCAzNC4wNzggMCAwIDEgLTYgNC42IEEgMjcuOSAyNy45IDAgMCAxIDcgMTcuNyBjIC0yLjkgMC45IC00LjkgMC45IC01LjMgMC4yIHMgMC40IC0yLjUgMi42IC00LjYgYSAxMS4wMTkgMTEuMDE5IDAgMCAxIC0wLjIgLTEuOCBDIDAuNyAxNC42IC0wLjQgMTcuMyAwLjQgMTguNyBhIDMuNTEgMy41MSAwIDAgMCAzIDEuMiBhIDE1LjA0NyAxNS4wNDcgMCAwIDAgNS4xIC0xLjEgYSAzMy42MjUgMzMuNjI1IDAgMCAwIDYgLTMgYSA0MS44NjkgNDEuODY5IDAgMCAwIDUuNCAtNCBhIDE3LjA0NCAxNy4wNDQgMCAwIDAgMS45IC0xLjkgYyAyIC0yLjMgMi42IC00LjEgMS45IC01LjMgWiIvPiYjeGE7PC9nPiYjeGE7PC9zdmc+;" vertex="1" parent="yfdQ7StdcLDw8oNEx_Lg-5"><mxGeometry x="27.210000000000036" width="54.55" height="50" as="geometry"/></mxCell><mxCell id="yfdQ7StdcLDw8oNEx_Lg-7" value="Azure Cosmos DB&amp;nbsp;&lt;br&gt;Runtime Config" style="text;html=1;strokeColor=none;fillColor=none;align=center;verticalAlign=middle;whiteSpace=wrap;rounded=0;" vertex="1" parent="yfdQ7StdcLDw8oNEx_Lg-5"><mxGeometry y="60" width="108.97" height="20" as="geometry"/></mxCell><mxCell id="yfdQ7StdcLDw8oNEx_Lg-8" value="Pipeline Failure" style="ellipse;whiteSpace=wrap;html=1;" vertex="1" parent="1"><mxGeometry x="1134.75" y="142" width="84" height="38" as="geometry"/></mxCell><mxCell id="yfdQ7StdcLDw8oNEx_Lg-9" value="" style="shape=flexArrow;endArrow=none;html=1;fillColor=#dae8fc;strokeColor=#6c8ebf;startArrow=block;endFill=0;entryX=0.5;entryY=0;entryDx=0;entryDy=0;exitX=0.5;exitY=1;exitDx=0;exitDy=0;" edge="1" parent="1" source="yfdQ7StdcLDw8oNEx_Lg-8"><mxGeometry width="50" height="50" relative="1" as="geometry"><mxPoint x="1292.75" y="209.11686143572626" as="sourcePoint"/><mxPoint x="1175.75" y="224" as="targetPoint"/></mxGeometry></mxCell><mxCell id="yfdQ7StdcLDw8oNEx_Lg-10" value="Conditions not met" style="text;html=1;strokeColor=none;fillColor=none;align=center;verticalAlign=middle;whiteSpace=wrap;rounded=0;" vertex="1" parent="1"><mxGeometry x="1195.75" y="191" width="60" height="20" as="geometry"/></mxCell><mxCell id="yfdQ7StdcLDw8oNEx_Lg-11" value="&lt;font color=&quot;#ff8000&quot;&gt;&lt;span style=&quot;font-size: 12px&quot;&gt;&lt;b&gt;6b&lt;/b&gt;&lt;/span&gt;&lt;/font&gt;" style="ellipse;whiteSpace=wrap;html=1;aspect=fixed;fillColor=#ffe6cc;fontSize=8;strokeColor=#d79b00;" vertex="1" parent="1"><mxGeometry x="1135.75" y="191" width="20" height="20" as="geometry"/></mxCell><mxCell id="yfdQ7StdcLDw8oNEx_Lg-19" value="&lt;font color=&quot;#ff8000&quot;&gt;&lt;span style=&quot;font-size: 12px&quot;&gt;&lt;b&gt;6a&lt;/b&gt;&lt;/span&gt;&lt;/font&gt;" style="ellipse;whiteSpace=wrap;html=1;aspect=fixed;fillColor=#ffe6cc;fontSize=8;strokeColor=#d79b00;" vertex="1" parent="1"><mxGeometry x="1185" y="559.13" width="20" height="20" as="geometry"/></mxCell><mxCell id="yfdQ7StdcLDw8oNEx_Lg-20" style="edgeStyle=orthogonalEdgeStyle;rounded=0;orthogonalLoop=1;jettySize=auto;html=1;" edge="1" parent="1" source="yfdQ7StdcLDw8oNEx_Lg-7" target="yfdQ7StdcLDw8oNEx_Lg-3"><mxGeometry relative="1" as="geometry"/></mxCell><mxCell id="yfdQ7StdcLDw8oNEx_Lg-21" value="" style="shape=flexArrow;endArrow=none;html=1;fillColor=#dae8fc;strokeColor=#6c8ebf;startArrow=block;endFill=0;" edge="1" parent="1"><mxGeometry width="50" height="50" relative="1" as="geometry"><mxPoint x="1305.97" y="379" as="sourcePoint"/><mxPoint x="1231.97" y="379.17863105175275" as="targetPoint"/></mxGeometry></mxCell><mxCell id="yfdQ7StdcLDw8oNEx_Lg-22" value="Conditions met" style="text;html=1;strokeColor=none;fillColor=none;align=center;verticalAlign=middle;whiteSpace=wrap;rounded=0;" vertex="1" parent="1"><mxGeometry x="1235.97" y="343.75" width="60" height="20" as="geometry"/></mxCell><mxCell id="yfdQ7StdcLDw8oNEx_Lg-23" value="&lt;font color=&quot;#ff8000&quot;&gt;&lt;span style=&quot;font-size: 12px&quot;&gt;&lt;b&gt;6c&lt;/b&gt;&lt;/span&gt;&lt;/font&gt;" style="ellipse;whiteSpace=wrap;html=1;aspect=fixed;fillColor=#ffe6cc;fontSize=8;strokeColor=#d79b00;" vertex="1" parent="1"><mxGeometry x="1255.97" y="316" width="20" height="20" as="geometry"/></mxCell><mxCell id="yfdQ7StdcLDw8oNEx_Lg-35" style="edgeStyle=orthogonalEdgeStyle;rounded=0;orthogonalLoop=1;jettySize=auto;html=1;entryX=0;entryY=0.5;entryDx=0;entryDy=0;" edge="1" parent="1" source="yfdQ7StdcLDw8oNEx_Lg-12" target="wjCRLZ0c9aTvCrKljIkT-14"><mxGeometry relative="1" as="geometry"><Array as="points"><mxPoint x="1175" y="715"/><mxPoint x="995" y="715"/><mxPoint x="995" y="844"/></Array></mxGeometry></mxCell></root></mxGraphModel></diagram></mxfile>